M48
;Layer_Color=9474304
;FILE_FORMAT=4:4
METRIC,LZ
;TYPE=PLATED
T1F00S00C0.3000
T2F00S00C1.1000
T3F00S00C6.3500
%
T01
X00326Y00066
X00426
X00526
X00226
X00126
X00026
X00076Y00166
X00176
X00276
X00226Y00266
X00126
X00026
X00076Y00366
X00176
X00276
X00190583Y00524
Y00549
X00165583Y00534
X001375Y00525
X0009Y0053
Y0051
Y0049
X0008Y005
X0007Y0049
Y0051
X0005
X0006Y005
X0005Y0049
X0006Y0048
X0008
X0009Y0047
X0007
X0008Y0052
X00055Y005325
X0004
X000475Y0054
X0004Y005475
X000475Y00555
X00055Y005475
X-00005Y0053
Y0051
Y0049
Y0047
X00426Y00466
X00526
X00476Y00366
X00376
X00326Y00266
X00426
X00526
X00476Y00166
X00376
X00576
Y00366
Y00566
X00526Y00666
X00476Y00766
X00376
X00326Y00666
X00383Y00589999
X0039Y00579
X00376Y00566
X00326Y00866
X00526
X00576Y00766
X00276
X00226Y00666
X00176Y00566
X00165583Y00559
X00125Y00565
X00118Y00583
X00112Y00596
X00076Y00566
X00055Y005625
X0004
X00276Y00966
X00376
X00476
X00576
T02
X00125Y004536
Y00479
X001504
X001758
X002012
X002266
X00252
X002774
Y004536
X00252
X002266
X002012
X001758
X001504
X003028
Y00479
X003282
X003536
Y004536
X003282
X00379
X004044
Y00479
X00379
T03
X0052Y0072
X003Y00719999
Y0107
X0052
M30
