M48
;Layer_Color=9474304
;FILE_FORMAT=4:4
METRIC,LZ
;TYPE=PLATED
T1F00S00C0.3000
T2F00S00C0.9000
T3F00S00C4.2000
%
T01
X00026Y00056
X00096
X00086Y00073
X00138Y00072
X00131Y00126
X001121Y001099
X00201Y00126
X00271
X00306Y00056
X00376
X00236
X00166
Y00196
X00236
X00306
X00376
X00411Y00266
X00341
X00271
X00201
X00166Y00336
X0015Y00445
X00166Y00476
X00201Y00546
X00266Y00543
X0028
X00273Y0055
Y00535
X00279Y00528
X00266
X00306Y00476
X00376
X00341Y00546
Y00406
X00271
X00306Y00336
X00376
X00131Y00266
X00096Y00196
X00026
X0003075Y00362
X0002175Y00411
X0003Y00455
X00039
Y0047
X0003
Y00485
X00039
Y005
X0003
X0007325Y004275
X0010525Y00385
X00142Y00437999
T02
X0044Y00283
Y003084
T03
X0005Y0014
X0035
M30
