G04 Layer_Color=255*
%FSLAX44Y44*%
%MOMM*%
G71*
G01*
G75*
%ADD10R,1.7000X1.3000*%
%ADD11R,1.7000X0.2500*%
%ADD12R,1.7000X2.5000*%
%ADD13R,2.5000X2.0500*%
%ADD14C,1.0000*%
%ADD18C,5.2000*%
%ADD19C,1.5000*%
%ADD20R,1.5000X1.5000*%
D10*
X105250Y505000D02*
D03*
Y305000D02*
D03*
Y345000D02*
D03*
Y385000D02*
D03*
Y465000D02*
D03*
Y425000D02*
D03*
D11*
X55000Y505000D02*
D03*
Y500000D02*
D03*
Y495000D02*
D03*
Y490000D02*
D03*
Y485000D02*
D03*
Y480000D02*
D03*
Y475000D02*
D03*
Y470000D02*
D03*
Y465000D02*
D03*
Y460000D02*
D03*
Y455000D02*
D03*
Y450000D02*
D03*
Y445000D02*
D03*
Y440000D02*
D03*
Y435000D02*
D03*
Y430000D02*
D03*
Y425000D02*
D03*
Y420000D02*
D03*
Y415000D02*
D03*
Y410000D02*
D03*
X54750Y405000D02*
D03*
Y400000D02*
D03*
Y395000D02*
D03*
Y390000D02*
D03*
Y385000D02*
D03*
Y380000D02*
D03*
Y375000D02*
D03*
Y370000D02*
D03*
Y365000D02*
D03*
Y360000D02*
D03*
Y355000D02*
D03*
Y350000D02*
D03*
Y345000D02*
D03*
Y340000D02*
D03*
Y335000D02*
D03*
Y330000D02*
D03*
Y325000D02*
D03*
Y320000D02*
D03*
Y315000D02*
D03*
Y310000D02*
D03*
Y305000D02*
D03*
D12*
X105250Y535000D02*
D03*
Y275000D02*
D03*
X54750Y535000D02*
D03*
Y275000D02*
D03*
D13*
X85500Y564000D02*
D03*
Y246000D02*
D03*
D14*
X50000Y605000D02*
D03*
D18*
X350000Y140000D02*
D03*
X50000D02*
D03*
D19*
X440000Y308400D02*
D03*
D20*
Y283000D02*
D03*
M02*
