G04 Layer_Physical_Order=2*
G04 Layer_Color=16711680*
%FSLAX44Y44*%
%MOMM*%
G71*
G01*
G75*
%ADD14C,1.0000*%
%ADD15C,0.2540*%
%ADD16C,1.3000*%
%ADD18C,5.2000*%
%ADD19C,1.5000*%
%ADD20R,1.5000X1.5000*%
%ADD21C,0.6000*%
%ADD22R,0.8000X2.0000*%
%ADD23R,1.0000X1.7000*%
%ADD24R,2.0000X0.8000*%
%ADD25R,1.7000X1.0000*%
%ADD26R,3.3000X1.2700*%
%ADD27R,1.0200X2.4100*%
%ADD28C,0.5000*%
G36*
X140167Y69872D02*
X139979Y69554D01*
X139812Y69216D01*
X139669Y68858D01*
X139547Y68479D01*
X139447Y68080D01*
X139370Y67661D01*
X139314Y67221D01*
X139281Y66762D01*
X139270Y66282D01*
X136730D01*
X136719Y66762D01*
X136630Y67661D01*
X136553Y68080D01*
X136453Y68479D01*
X136331Y68858D01*
X136187Y69216D01*
X136021Y69554D01*
X135833Y69872D01*
X135623Y70170D01*
X140377D01*
X140167Y69872D01*
D02*
G37*
G36*
X88462Y71244D02*
X88359Y70989D01*
X88267Y70701D01*
X88189Y70379D01*
X88122Y70023D01*
X88025Y69210D01*
X87994Y68753D01*
X87970Y67737D01*
X85430Y67055D01*
X85414Y67495D01*
X85367Y67923D01*
X85288Y68339D01*
X85178Y68743D01*
X85036Y69134D01*
X84862Y69513D01*
X84657Y69879D01*
X84420Y70234D01*
X84152Y70576D01*
X83852Y70905D01*
X88577Y71464D01*
X88462Y71244D01*
D02*
G37*
G36*
X20000Y624392D02*
X259849D01*
X260335Y623219D01*
X258558Y621442D01*
X258558Y621442D01*
X258116Y620780D01*
X257961Y620000D01*
Y563000D01*
X257961Y524000D01*
X257961Y524000D01*
X258116Y523220D01*
X258558Y522558D01*
X258558Y522558D01*
X263558Y517558D01*
X263558Y517558D01*
X264220Y517116D01*
X264220Y517116D01*
X265000Y516961D01*
X280000Y516961D01*
X280781Y517116D01*
X281442Y517558D01*
X281442Y517558D01*
X286442Y522558D01*
X286884Y523220D01*
X287039Y524000D01*
Y604000D01*
Y620000D01*
X286884Y620780D01*
X286442Y621442D01*
X286442Y621442D01*
X284665Y623219D01*
X285151Y624392D01*
X380000D01*
X380317Y624455D01*
X383752Y624003D01*
X387248Y622555D01*
X390251Y620251D01*
X392555Y617248D01*
X394003Y613752D01*
X394455Y610317D01*
X394392Y610000D01*
Y540000D01*
Y355000D01*
X394392Y355000D01*
X394377D01*
X394869Y350001D01*
X396327Y345194D01*
X398695Y340764D01*
X401881Y336881D01*
X405764Y333695D01*
X410194Y331327D01*
X415001Y329869D01*
X420000Y329377D01*
Y329392D01*
X420000Y329392D01*
X450000D01*
X450317Y329455D01*
X453752Y329003D01*
X457248Y327555D01*
X460251Y325251D01*
X462555Y322249D01*
X464003Y318752D01*
X464333Y316245D01*
X464392Y315000D01*
X464392Y315000D01*
X464392Y313745D01*
Y275000D01*
X464455Y274683D01*
X464003Y271248D01*
X462555Y267752D01*
X460251Y264749D01*
X457248Y262445D01*
X453752Y260997D01*
X451245Y260667D01*
X450000Y260608D01*
X450000Y260608D01*
X448745Y260608D01*
X420000D01*
Y260623D01*
X415001Y260131D01*
X410194Y258673D01*
X405764Y256305D01*
X401881Y253118D01*
X398695Y249236D01*
X396327Y244806D01*
X394869Y239999D01*
X394377Y235000D01*
X394392D01*
X394392Y235000D01*
Y20000D01*
X394455Y19683D01*
X394003Y16248D01*
X392555Y12751D01*
X390251Y9749D01*
X387248Y7445D01*
X383752Y5997D01*
X380317Y5545D01*
X380000Y5608D01*
X144500D01*
Y31600D01*
X141334D01*
Y66879D01*
X141344Y67021D01*
X141385Y67348D01*
X141441Y67647D01*
X141509Y67919D01*
X141588Y68165D01*
X141677Y68385D01*
X141774Y68584D01*
X141880Y68763D01*
X142043Y68993D01*
X142119Y69165D01*
X142710Y70049D01*
X143098Y72000D01*
X142710Y73951D01*
X141605Y75605D01*
X139951Y76710D01*
X138000Y77098D01*
X136049Y76710D01*
X134395Y75605D01*
X133290Y73951D01*
X132902Y72000D01*
X133290Y70049D01*
X133881Y69165D01*
X133957Y68993D01*
X134120Y68763D01*
X134226Y68584D01*
X134324Y68386D01*
X134412Y68165D01*
X134491Y67919D01*
X134559Y67647D01*
X134609Y67375D01*
X134666Y66802D01*
Y31600D01*
X130300D01*
Y5608D01*
X93700D01*
Y31600D01*
X90034D01*
Y68694D01*
X90056Y69022D01*
X90139Y69714D01*
X90182Y69948D01*
X90232Y70151D01*
X90279Y70297D01*
X90315Y70386D01*
X90384Y70520D01*
X90406Y70595D01*
X90710Y71049D01*
X91098Y73000D01*
X90710Y74951D01*
X89605Y76605D01*
X87951Y77710D01*
X86000Y78098D01*
X84049Y77710D01*
X82395Y76605D01*
X81290Y74951D01*
X80902Y73000D01*
X81290Y71049D01*
X82395Y69395D01*
X82584Y69269D01*
X82593Y69259D01*
X82768Y69036D01*
X82916Y68814D01*
X83042Y68589D01*
X83147Y68360D01*
X83232Y68125D01*
X83300Y67879D01*
X83349Y67621D01*
X83366Y67465D01*
Y31600D01*
X79500D01*
Y5608D01*
X20000D01*
X19683Y5545D01*
X16248Y5997D01*
X12751Y7445D01*
X9749Y9749D01*
X7445Y12751D01*
X5997Y16248D01*
X5545Y19683D01*
X5608Y20000D01*
Y610000D01*
X5545Y610317D01*
X5997Y613752D01*
X7445Y617248D01*
X9749Y620251D01*
X12751Y622555D01*
X16248Y624003D01*
X19683Y624455D01*
X20000Y624392D01*
D02*
G37*
G36*
X285000Y620000D02*
Y604000D01*
Y524000D01*
X280000Y519000D01*
X265000Y519000D01*
X260000Y524000D01*
X260000Y563000D01*
Y620000D01*
X264392Y624392D01*
X280608D01*
X285000Y620000D01*
D02*
G37*
G36*
X139283Y31627D02*
X139321Y31195D01*
X139384Y30814D01*
X139473Y30484D01*
X139587Y30205D01*
X139727Y29976D01*
X139892Y29798D01*
X140083Y29671D01*
X140299Y29595D01*
X140540Y29569D01*
X135460D01*
X135701Y29595D01*
X135917Y29671D01*
X136108Y29798D01*
X136273Y29976D01*
X136412Y30205D01*
X136527Y30484D01*
X136616Y30814D01*
X136679Y31195D01*
X136717Y31627D01*
X136730Y32109D01*
X139270D01*
X139283Y31627D01*
D02*
G37*
G36*
X87983D02*
X88021Y31195D01*
X88084Y30814D01*
X88173Y30484D01*
X88287Y30205D01*
X88427Y29976D01*
X88592Y29798D01*
X88783Y29671D01*
X88999Y29595D01*
X89240Y29569D01*
X84160D01*
X84401Y29595D01*
X84617Y29671D01*
X84808Y29798D01*
X84973Y29976D01*
X85112Y30205D01*
X85227Y30484D01*
X85316Y30814D01*
X85379Y31195D01*
X85417Y31627D01*
X85430Y32109D01*
X87970D01*
X87983Y31627D01*
D02*
G37*
%LPC*%
G36*
X350000Y168087D02*
X345606Y167741D01*
X341321Y166712D01*
X337249Y165025D01*
X333491Y162722D01*
X330140Y159860D01*
X327277Y156509D01*
X324975Y152751D01*
X323288Y148679D01*
X322259Y144394D01*
X321913Y140000D01*
X322259Y135606D01*
X323288Y131321D01*
X324975Y127249D01*
X327277Y123491D01*
X330140Y120140D01*
X333491Y117277D01*
X337249Y114975D01*
X341321Y113288D01*
X345606Y112259D01*
X350000Y111913D01*
X354394Y112259D01*
X358679Y113288D01*
X362751Y114975D01*
X366509Y117277D01*
X369860Y120140D01*
X372723Y123491D01*
X375025Y127249D01*
X376712Y131321D01*
X377741Y135606D01*
X378087Y140000D01*
X377741Y144394D01*
X376712Y148679D01*
X375025Y152751D01*
X372723Y156509D01*
X369860Y159860D01*
X366509Y162722D01*
X362751Y165025D01*
X358679Y166712D01*
X354394Y167741D01*
X350000Y168087D01*
D02*
G37*
G36*
X50000D02*
X45606Y167741D01*
X41321Y166712D01*
X37249Y165025D01*
X33491Y162722D01*
X30140Y159860D01*
X27278Y156509D01*
X24975Y152751D01*
X23288Y148679D01*
X22259Y144394D01*
X21913Y140000D01*
X22259Y135606D01*
X23288Y131321D01*
X24975Y127249D01*
X27278Y123491D01*
X30140Y120140D01*
X33491Y117277D01*
X37249Y114975D01*
X41321Y113288D01*
X45606Y112259D01*
X50000Y111913D01*
X54394Y112259D01*
X58679Y113288D01*
X62751Y114975D01*
X66509Y117277D01*
X69860Y120140D01*
X72723Y123491D01*
X75025Y127249D01*
X76712Y131321D01*
X77741Y135606D01*
X78087Y140000D01*
X77741Y144394D01*
X76712Y148679D01*
X75025Y152751D01*
X72723Y156509D01*
X69860Y159860D01*
X66509Y162722D01*
X62751Y165025D01*
X58679Y166712D01*
X54394Y167741D01*
X50000Y168087D01*
D02*
G37*
G36*
X21750Y416098D02*
X19799Y415710D01*
X18145Y414605D01*
X17040Y412951D01*
X16652Y411000D01*
X17040Y409049D01*
X17631Y408165D01*
X17707Y407993D01*
X17870Y407763D01*
X17976Y407584D01*
X18074Y407385D01*
X18162Y407165D01*
X18241Y406919D01*
X18309Y406647D01*
X18360Y406375D01*
X18416Y405802D01*
Y404000D01*
X10250D01*
Y392000D01*
X34250D01*
Y395166D01*
X57250D01*
Y392000D01*
X78250D01*
Y406000D01*
X57250D01*
Y401834D01*
X34250D01*
Y404000D01*
X25084D01*
Y405879D01*
X25094Y406021D01*
X25136Y406348D01*
X25191Y406647D01*
X25259Y406919D01*
X25338Y407165D01*
X25426Y407385D01*
X25524Y407584D01*
X25630Y407763D01*
X25793Y407993D01*
X25869Y408165D01*
X26460Y409049D01*
X26848Y411000D01*
X26460Y412951D01*
X25355Y414605D01*
X23701Y415710D01*
X21750Y416098D01*
D02*
G37*
G36*
X150000Y450098D02*
X148049Y449710D01*
X146395Y448605D01*
X145290Y446951D01*
X144902Y445000D01*
X145223Y443386D01*
X144335Y442611D01*
X144194Y442547D01*
X143951Y442709D01*
X142000Y443097D01*
X140049Y442709D01*
X138395Y441604D01*
X137290Y439950D01*
X136902Y437999D01*
X137290Y436048D01*
X138395Y434394D01*
X140049Y433289D01*
X141092Y433082D01*
X141267Y433014D01*
X141546Y432967D01*
X141747Y432915D01*
X141957Y432844D01*
X142175Y432750D01*
X142405Y432632D01*
X142645Y432488D01*
X142873Y432331D01*
X143319Y431966D01*
X294642Y280643D01*
X295724Y279920D01*
X296999Y279666D01*
X430500D01*
Y273500D01*
X449500D01*
Y292500D01*
X430500D01*
Y286334D01*
X298381D01*
X147978Y436736D01*
X147886Y436843D01*
X147683Y437104D01*
X147511Y437355D01*
X147367Y437595D01*
X147249Y437825D01*
X147155Y438043D01*
X147084Y438253D01*
X147032Y438454D01*
X146984Y438732D01*
X146917Y438907D01*
X146777Y439613D01*
X147665Y440388D01*
X147806Y440453D01*
X148049Y440290D01*
X149093Y440083D01*
X149267Y440015D01*
X149546Y439967D01*
X149747Y439916D01*
X149956Y439845D01*
X150175Y439751D01*
X150405Y439633D01*
X150645Y439489D01*
X150873Y439332D01*
X151318Y438967D01*
X284242Y306042D01*
X285324Y305320D01*
X286600Y305066D01*
X425515D01*
X425764Y305053D01*
X426477Y304942D01*
X427250Y304750D01*
X428082Y304471D01*
X428970Y304103D01*
X429914Y303641D01*
X430889Y303095D01*
X433061Y301672D01*
X434209Y300820D01*
X434377Y300741D01*
X435209Y300102D01*
X437520Y299144D01*
X440000Y298818D01*
X442480Y299144D01*
X444791Y300102D01*
X446776Y301625D01*
X448298Y303609D01*
X449255Y305920D01*
X449582Y308400D01*
X449255Y310880D01*
X448298Y313191D01*
X446776Y315175D01*
X444791Y316698D01*
X442480Y317655D01*
X440000Y317982D01*
X437520Y317655D01*
X435209Y316698D01*
X434377Y316059D01*
X434209Y315980D01*
X433062Y315128D01*
X430889Y313705D01*
X429914Y313159D01*
X428971Y312698D01*
X428082Y312329D01*
X427250Y312050D01*
X426477Y311858D01*
X425764Y311747D01*
X425515Y311734D01*
X287981D01*
X155978Y443737D01*
X155886Y443843D01*
X155684Y444104D01*
X155511Y444355D01*
X155367Y444595D01*
X155249Y444825D01*
X155155Y445044D01*
X155084Y445253D01*
X155033Y445454D01*
X154985Y445733D01*
X154917Y445908D01*
X154710Y446951D01*
X153605Y448605D01*
X151951Y449710D01*
X150000Y450098D01*
D02*
G37*
G36*
X350000Y77082D02*
X346667Y76754D01*
X343463Y75782D01*
X340510Y74203D01*
X337921Y72079D01*
X335797Y69490D01*
X334218Y66537D01*
X333246Y63333D01*
X332918Y60000D01*
X333246Y56667D01*
X334218Y53463D01*
X335797Y50510D01*
X337921Y47921D01*
X340510Y45797D01*
X343463Y44218D01*
X346667Y43246D01*
X350000Y42918D01*
X353333Y43246D01*
X356537Y44218D01*
X359490Y45797D01*
X362079Y47921D01*
X364203Y50510D01*
X365782Y53463D01*
X366754Y56667D01*
X367082Y60000D01*
X366754Y63333D01*
X365782Y66537D01*
X364203Y69490D01*
X362079Y72079D01*
X359490Y74203D01*
X356537Y75782D01*
X353333Y76754D01*
X350000Y77082D01*
D02*
G37*
G36*
X112100Y114998D02*
X110149Y114610D01*
X108495Y113505D01*
X107390Y111851D01*
X107002Y109900D01*
X107390Y107949D01*
X107981Y107065D01*
X108057Y106893D01*
X108220Y106663D01*
X108326Y106484D01*
X108424Y106285D01*
X108512Y106065D01*
X108591Y105819D01*
X108659Y105547D01*
X108709Y105275D01*
X108766Y104702D01*
Y65900D01*
X104900D01*
Y37800D01*
X119100D01*
Y65900D01*
X115434D01*
Y104779D01*
X115444Y104921D01*
X115485Y105248D01*
X115541Y105547D01*
X115609Y105819D01*
X115688Y106065D01*
X115777Y106285D01*
X115874Y106484D01*
X115980Y106663D01*
X116143Y106893D01*
X116219Y107065D01*
X116810Y107949D01*
X117198Y109900D01*
X116810Y111851D01*
X115705Y113505D01*
X114051Y114610D01*
X112100Y114998D01*
D02*
G37*
G36*
X120000Y575573D02*
X110000D01*
X108303Y575350D01*
X101500D01*
Y573514D01*
X101436Y572970D01*
X101255Y572389D01*
X100891Y571597D01*
X100331Y570631D01*
X99608Y569562D01*
X94661Y563785D01*
X39449Y508573D01*
X30000D01*
X27781Y508281D01*
X25713Y507425D01*
X23938Y506062D01*
X22575Y504287D01*
X21719Y502219D01*
X21427Y500000D01*
X21719Y497781D01*
X22575Y495713D01*
X23938Y493938D01*
X24768Y493300D01*
Y491700D01*
X23938Y491062D01*
X22575Y489287D01*
X21719Y487219D01*
X21427Y485000D01*
X21719Y482781D01*
X22575Y480713D01*
X23938Y478938D01*
X24768Y478300D01*
Y476700D01*
X23938Y476062D01*
X22575Y474287D01*
X21719Y472219D01*
X21427Y470000D01*
X21719Y467781D01*
X22575Y465713D01*
X23938Y463938D01*
X24768Y463300D01*
Y461700D01*
X23938Y461062D01*
X22575Y459287D01*
X21719Y457219D01*
X21427Y455000D01*
X21719Y452781D01*
X22575Y450713D01*
X23683Y449270D01*
X23215Y448000D01*
X10250D01*
Y436000D01*
X32176D01*
X32220Y435991D01*
X32263Y436000D01*
X34250D01*
Y437223D01*
X34418Y437263D01*
X34904Y437340D01*
X35878Y437412D01*
X55419D01*
X55833Y437375D01*
X56411Y437280D01*
X56846Y437163D01*
X57130Y437047D01*
X57250Y436974D01*
Y434000D01*
X63162D01*
Y433250D01*
X63511Y431494D01*
X64506Y430006D01*
X68435Y426076D01*
X68540Y425549D01*
X69645Y423895D01*
X71299Y422790D01*
X71826Y422685D01*
X80412Y414100D01*
Y386900D01*
X73584Y380072D01*
X72672Y379225D01*
X71904Y378610D01*
X71222Y378135D01*
X70987Y378000D01*
X59318D01*
X59274Y378009D01*
X59231Y378000D01*
X57250D01*
Y376777D01*
X57082Y376737D01*
X56596Y376660D01*
X55622Y376588D01*
X35753D01*
X35552Y376595D01*
X34929Y376656D01*
X34418Y376737D01*
X34250Y376777D01*
Y378000D01*
X32263D01*
X32220Y378009D01*
X32176Y378000D01*
X10250D01*
Y366000D01*
X25882D01*
X26561Y364730D01*
X26040Y363951D01*
X25833Y362907D01*
X25765Y362733D01*
X25717Y362454D01*
X25666Y362253D01*
X25594Y362044D01*
X25501Y361825D01*
X25383Y361595D01*
X25239Y361355D01*
X25082Y361127D01*
X24717Y360682D01*
X19892Y355858D01*
X19170Y354776D01*
X18916Y353500D01*
Y334000D01*
X10250D01*
Y322000D01*
X34250D01*
Y324666D01*
X57250D01*
Y322000D01*
X78250D01*
Y336000D01*
X57250D01*
Y331334D01*
X34250D01*
Y334000D01*
X25584D01*
Y352119D01*
X29487Y356022D01*
X29593Y356114D01*
X29854Y356316D01*
X30105Y356489D01*
X30345Y356633D01*
X30575Y356751D01*
X30794Y356845D01*
X31003Y356916D01*
X31204Y356968D01*
X31483Y357015D01*
X31658Y357083D01*
X32701Y357290D01*
X34355Y358395D01*
X35460Y360049D01*
X35848Y362000D01*
X35460Y363951D01*
X34790Y364954D01*
X34250Y366000D01*
Y367223D01*
X34418Y367263D01*
X34904Y367340D01*
X35878Y367412D01*
X55419D01*
X55833Y367375D01*
X56411Y367280D01*
X56846Y367163D01*
X57130Y367047D01*
X57250Y366975D01*
Y364000D01*
X78250D01*
Y371282D01*
X78324Y371410D01*
X78790Y372076D01*
X80059Y373571D01*
X88244Y381756D01*
X89239Y383244D01*
X89588Y385000D01*
Y416000D01*
X89239Y417756D01*
X88244Y419244D01*
X77803Y429686D01*
X76855Y431105D01*
X75436Y432053D01*
X74662Y432827D01*
X75148Y434000D01*
X78250D01*
Y448000D01*
X69864D01*
X69394Y449270D01*
X102351Y482227D01*
X120000D01*
X121697Y482450D01*
X138500D01*
Y499150D01*
X121697D01*
X120000Y499373D01*
X100081D01*
X99555Y500643D01*
X106538Y507627D01*
X120000D01*
X121697Y507850D01*
X138500D01*
Y524550D01*
X121697D01*
X120000Y524773D01*
X104268D01*
X103785Y525665D01*
X103745Y526043D01*
X104815Y527074D01*
X107154Y529146D01*
X109307Y530859D01*
X111262Y532210D01*
X112696Y533027D01*
X120000D01*
X121697Y533250D01*
X138500D01*
Y549950D01*
X121697D01*
X120000Y550173D01*
X107174D01*
X107082Y550161D01*
X106497Y551197D01*
X106491Y551365D01*
X107575Y552409D01*
X109864Y554431D01*
X111980Y556109D01*
X113914Y557442D01*
X115644Y558427D01*
X120000D01*
X121697Y558650D01*
X138500D01*
Y575350D01*
X121697D01*
X120000Y575573D01*
D02*
G37*
%LPD*%
G36*
X435425Y302457D02*
X434229Y303345D01*
X431947Y304840D01*
X430861Y305448D01*
X429811Y305962D01*
X428797Y306382D01*
X427820Y306709D01*
X426880Y306943D01*
X425976Y307083D01*
X425108Y307130D01*
Y309670D01*
X425976Y309717D01*
X426880Y309857D01*
X427820Y310091D01*
X428797Y310418D01*
X429811Y310838D01*
X430861Y311352D01*
X431947Y311960D01*
X434229Y313455D01*
X435425Y314343D01*
Y302457D01*
D02*
G37*
G36*
X59311Y325460D02*
X59285Y325701D01*
X59208Y325917D01*
X59080Y326108D01*
X58900Y326273D01*
X58668Y326413D01*
X58386Y326527D01*
X58052Y326616D01*
X57666Y326679D01*
X57229Y326717D01*
X56740Y326730D01*
Y329270D01*
X57229Y329283D01*
X57666Y329321D01*
X58052Y329384D01*
X58386Y329473D01*
X58668Y329588D01*
X58900Y329727D01*
X59080Y329892D01*
X59208Y330083D01*
X59285Y330299D01*
X59311Y330540D01*
Y325460D01*
D02*
G37*
G36*
X32215Y330299D02*
X32292Y330083D01*
X32420Y329892D01*
X32600Y329727D01*
X32832Y329588D01*
X33114Y329473D01*
X33449Y329384D01*
X33834Y329321D01*
X34271Y329283D01*
X34760Y329270D01*
Y326730D01*
X34271Y326717D01*
X33834Y326679D01*
X33449Y326616D01*
X33114Y326527D01*
X32832Y326413D01*
X32600Y326273D01*
X32420Y326108D01*
X32292Y325917D01*
X32215Y325701D01*
X32189Y325460D01*
Y330540D01*
X32215Y330299D01*
D02*
G37*
G36*
X113383Y65927D02*
X113421Y65495D01*
X113484Y65114D01*
X113573Y64784D01*
X113687Y64504D01*
X113827Y64276D01*
X113992Y64098D01*
X114183Y63971D01*
X114399Y63895D01*
X114640Y63870D01*
X109560D01*
X109801Y63895D01*
X110017Y63971D01*
X110208Y64098D01*
X110373Y64276D01*
X110513Y64504D01*
X110627Y64784D01*
X110716Y65114D01*
X110779Y65495D01*
X110817Y65927D01*
X110830Y66410D01*
X113370D01*
X113383Y65927D01*
D02*
G37*
G36*
X114267Y107772D02*
X114079Y107454D01*
X113912Y107116D01*
X113769Y106758D01*
X113647Y106379D01*
X113547Y105980D01*
X113470Y105561D01*
X113414Y105121D01*
X113381Y104662D01*
X113370Y104182D01*
X110830D01*
X110819Y104662D01*
X110730Y105561D01*
X110653Y105980D01*
X110553Y106379D01*
X110431Y106758D01*
X110288Y107116D01*
X110121Y107454D01*
X109933Y107772D01*
X109723Y108070D01*
X114477D01*
X114267Y107772D01*
D02*
G37*
G36*
X432561Y280460D02*
X432535Y280701D01*
X432458Y280917D01*
X432330Y281108D01*
X432150Y281273D01*
X431918Y281413D01*
X431636Y281527D01*
X431301Y281616D01*
X430916Y281679D01*
X430479Y281717D01*
X429991Y281730D01*
Y284270D01*
X430479Y284283D01*
X430916Y284321D01*
X431301Y284384D01*
X431636Y284473D01*
X431918Y284587D01*
X432150Y284727D01*
X432330Y284892D01*
X432458Y285083D01*
X432535Y285299D01*
X432561Y285540D01*
Y280460D01*
D02*
G37*
G36*
X23533Y334021D02*
X23571Y333584D01*
X23634Y333199D01*
X23723Y332864D01*
X23837Y332582D01*
X23977Y332350D01*
X24142Y332170D01*
X24333Y332042D01*
X24549Y331965D01*
X24790Y331939D01*
X19710D01*
X19951Y331965D01*
X20167Y332042D01*
X20358Y332170D01*
X20523Y332350D01*
X20663Y332582D01*
X20777Y332864D01*
X20866Y333199D01*
X20929Y333584D01*
X20967Y334021D01*
X20980Y334510D01*
X23520D01*
X23533Y334021D01*
D02*
G37*
G36*
X59311Y437000D02*
X59259Y437475D01*
X59107Y437900D01*
X58855Y438275D01*
X58502Y438600D01*
X58049Y438875D01*
X57496Y439100D01*
X56842Y439275D01*
X56089Y439400D01*
X55235Y439475D01*
X54281Y439500D01*
Y444500D01*
X55230Y444515D01*
X56831Y444632D01*
X57481Y444735D01*
X58031Y444867D01*
X58481Y445029D01*
X58830Y445220D01*
X59081Y445440D01*
X59230Y445690D01*
X59281Y445970D01*
X59311Y437000D01*
D02*
G37*
G36*
X70477Y436003D02*
X70430Y435919D01*
X70388Y435780D01*
X70351Y435586D01*
X70320Y435335D01*
X70275Y434668D01*
X70250Y433250D01*
X65250D01*
X65247Y433778D01*
X65113Y435780D01*
X65071Y435919D01*
X65023Y436003D01*
X64970Y436031D01*
X70531D01*
X70477Y436003D01*
D02*
G37*
G36*
X145036Y438027D02*
X145128Y437669D01*
X145250Y437313D01*
X145402Y436957D01*
X145583Y436604D01*
X145795Y436251D01*
X146037Y435900D01*
X146308Y435550D01*
X146610Y435201D01*
X146941Y434854D01*
X145145Y433058D01*
X144798Y433390D01*
X144100Y433963D01*
X143749Y434204D01*
X143396Y434416D01*
X143042Y434597D01*
X142687Y434749D01*
X142330Y434871D01*
X141972Y434962D01*
X141613Y435024D01*
X144975Y438386D01*
X145036Y438027D01*
D02*
G37*
G36*
X32269Y445690D02*
X32420Y445440D01*
X32669Y445220D01*
X33019Y445029D01*
X33470Y444867D01*
X34019Y444735D01*
X34669Y444632D01*
X35419Y444559D01*
X37220Y444500D01*
Y439500D01*
X36270Y439485D01*
X34669Y439368D01*
X34019Y439265D01*
X33470Y439133D01*
X33019Y438971D01*
X32669Y438780D01*
X32420Y438559D01*
X32269Y438310D01*
X32220Y438031D01*
Y445970D01*
X32269Y445690D01*
D02*
G37*
G36*
X122065Y560711D02*
X120900Y561286D01*
X119585Y561529D01*
X118120Y561439D01*
X116506Y561016D01*
X114743Y560260D01*
X112830Y559171D01*
X110767Y557750D01*
X108554Y555995D01*
X106192Y553908D01*
X103680Y551488D01*
X94338Y560531D01*
X96085Y562313D01*
X101232Y568324D01*
X102060Y569547D01*
X102703Y570658D01*
X103163Y571657D01*
X103439Y572544D01*
X103531Y573320D01*
X122065Y560711D01*
D02*
G37*
G36*
X119239Y535280D02*
X118138Y535926D01*
X116873Y536224D01*
X115445Y536175D01*
X113852Y535777D01*
X112096Y535032D01*
X110175Y533938D01*
X108091Y532498D01*
X105843Y530709D01*
X103430Y528572D01*
X100854Y526088D01*
X89742Y533361D01*
X103531Y547920D01*
X119239Y535280D01*
D02*
G37*
G36*
X153037Y445028D02*
X153128Y444670D01*
X153250Y444313D01*
X153402Y443958D01*
X153584Y443604D01*
X153795Y443251D01*
X154037Y442900D01*
X154308Y442550D01*
X154610Y442202D01*
X154941Y441855D01*
X153145Y440059D01*
X152798Y440390D01*
X152100Y440963D01*
X151749Y441205D01*
X151396Y441416D01*
X151042Y441598D01*
X150687Y441750D01*
X150330Y441871D01*
X149972Y441963D01*
X149613Y442025D01*
X152975Y445387D01*
X153037Y445028D01*
D02*
G37*
G36*
X23917Y408872D02*
X23729Y408554D01*
X23563Y408216D01*
X23419Y407858D01*
X23297Y407479D01*
X23197Y407080D01*
X23120Y406661D01*
X23064Y406222D01*
X23031Y405762D01*
X23020Y405282D01*
X20480D01*
X20469Y405762D01*
X20380Y406661D01*
X20303Y407080D01*
X20203Y407479D01*
X20081Y407858D01*
X19937Y408216D01*
X19771Y408554D01*
X19583Y408872D01*
X19373Y409170D01*
X24127D01*
X23917Y408872D01*
D02*
G37*
G36*
X32269Y375690D02*
X32420Y375440D01*
X32669Y375220D01*
X33019Y375029D01*
X33470Y374867D01*
X34019Y374735D01*
X34669Y374632D01*
X35419Y374559D01*
X37220Y374500D01*
Y369500D01*
X36270Y369485D01*
X34669Y369368D01*
X34019Y369265D01*
X33470Y369133D01*
X33019Y368971D01*
X32669Y368780D01*
X32420Y368559D01*
X32269Y368310D01*
X32220Y368031D01*
Y375970D01*
X32269Y375690D01*
D02*
G37*
G36*
X59311Y367000D02*
X59259Y367475D01*
X59107Y367900D01*
X58855Y368275D01*
X58502Y368600D01*
X58049Y368875D01*
X57496Y369100D01*
X56842Y369275D01*
X56089Y369400D01*
X55235Y369475D01*
X54281Y369500D01*
Y374500D01*
X55230Y374515D01*
X56831Y374632D01*
X57481Y374735D01*
X58031Y374867D01*
X58481Y375029D01*
X58830Y375220D01*
X59081Y375440D01*
X59230Y375690D01*
X59281Y375970D01*
X59311Y367000D01*
D02*
G37*
G36*
X31137Y359025D02*
X30778Y358963D01*
X30420Y358871D01*
X30063Y358750D01*
X29708Y358598D01*
X29354Y358416D01*
X29001Y358205D01*
X28650Y357963D01*
X28300Y357692D01*
X27952Y357390D01*
X27605Y357059D01*
X25809Y358855D01*
X26140Y359202D01*
X26713Y359900D01*
X26955Y360251D01*
X27166Y360604D01*
X27348Y360958D01*
X27500Y361313D01*
X27622Y361670D01*
X27713Y362028D01*
X27775Y362387D01*
X31137Y359025D01*
D02*
G37*
G36*
X79755Y376219D02*
X78751Y375180D01*
X77174Y373323D01*
X76602Y372505D01*
X76173Y371761D01*
X75889Y371091D01*
X75748Y370495D01*
X75751Y369972D01*
X75898Y369523D01*
X76189Y369148D01*
X68898Y375939D01*
X69296Y375670D01*
X69762Y375541D01*
X70297Y375550D01*
X70901Y375698D01*
X71574Y375985D01*
X72315Y376411D01*
X73126Y376976D01*
X74005Y377680D01*
X75970Y379505D01*
X79755Y376219D01*
D02*
G37*
G36*
X23033Y404021D02*
X23071Y403584D01*
X23134Y403199D01*
X23223Y402864D01*
X23338Y402582D01*
X23477Y402350D01*
X23642Y402170D01*
X23833Y402042D01*
X24049Y401965D01*
X24290Y401939D01*
X19210D01*
X19451Y401965D01*
X19667Y402042D01*
X19858Y402170D01*
X20023Y402350D01*
X20162Y402582D01*
X20277Y402864D01*
X20366Y403199D01*
X20429Y403584D01*
X20467Y404021D01*
X20480Y404510D01*
X23020D01*
X23033Y404021D01*
D02*
G37*
G36*
X59311Y395960D02*
X59285Y396201D01*
X59208Y396417D01*
X59080Y396608D01*
X58900Y396773D01*
X58668Y396912D01*
X58386Y397027D01*
X58052Y397116D01*
X57666Y397179D01*
X57229Y397217D01*
X56740Y397230D01*
Y399770D01*
X57229Y399783D01*
X57666Y399821D01*
X58052Y399884D01*
X58386Y399973D01*
X58668Y400088D01*
X58900Y400227D01*
X59080Y400392D01*
X59208Y400583D01*
X59285Y400799D01*
X59311Y401040D01*
Y395960D01*
D02*
G37*
G36*
X32215Y400799D02*
X32292Y400583D01*
X32420Y400392D01*
X32600Y400227D01*
X32832Y400088D01*
X33114Y399973D01*
X33449Y399884D01*
X33834Y399821D01*
X34271Y399783D01*
X34760Y399770D01*
Y397230D01*
X34271Y397217D01*
X33834Y397179D01*
X33449Y397116D01*
X33114Y397027D01*
X32832Y396912D01*
X32600Y396773D01*
X32420Y396608D01*
X32292Y396417D01*
X32215Y396201D01*
X32189Y395960D01*
Y401040D01*
X32215Y400799D01*
D02*
G37*
D14*
X350000Y60000D02*
D03*
D15*
X138000Y14850D02*
Y72000D01*
X112100Y49150D02*
Y109900D01*
X86000Y73000D02*
X86700Y72300D01*
Y14850D02*
Y72300D01*
X150000Y445000D02*
X286600Y308400D01*
X440000D01*
X142000Y437999D02*
Y438000D01*
X296999Y283000D01*
X440000D01*
X22250Y328000D02*
Y353500D01*
Y328000D02*
X66750D01*
X21750Y398500D02*
Y411000D01*
Y398500D02*
X67250D01*
X22250Y353500D02*
X30750Y362000D01*
D16*
X30000Y455000D02*
X63000D01*
X98800Y490800D01*
X120000D01*
X102987Y516200D02*
X120000D01*
X56787Y470000D02*
X102987Y516200D01*
X30000Y470000D02*
X56787D01*
X107174Y541600D02*
X120000D01*
X50574Y485000D02*
X107174Y541600D01*
X30000Y485000D02*
X50574D01*
X110000Y567000D02*
X120000D01*
X43000Y500000D02*
X110000Y567000D01*
X30000Y500000D02*
X43000D01*
D18*
X350000Y140000D02*
D03*
X50000D02*
D03*
D19*
X440000Y308400D02*
D03*
D20*
Y283000D02*
D03*
D21*
X105250Y385000D02*
D03*
X376000Y476000D02*
D03*
Y336000D02*
D03*
X411000Y266000D02*
D03*
X376000Y196000D02*
D03*
Y56000D02*
D03*
X341000Y546000D02*
D03*
X306000Y476000D02*
D03*
X341000Y406000D02*
D03*
X306000Y336000D02*
D03*
X341000Y266000D02*
D03*
X306000Y196000D02*
D03*
Y56000D02*
D03*
X271000Y406000D02*
D03*
Y266000D02*
D03*
X236000Y196000D02*
D03*
X271000Y126000D02*
D03*
X236000Y56000D02*
D03*
X201000Y546000D02*
D03*
X166000Y476000D02*
D03*
Y336000D02*
D03*
X201000Y266000D02*
D03*
X166000Y196000D02*
D03*
X201000Y126000D02*
D03*
X166000Y56000D02*
D03*
X131000Y266000D02*
D03*
X96000Y196000D02*
D03*
X131000Y126000D02*
D03*
X96000Y56000D02*
D03*
X26000Y196000D02*
D03*
Y56000D02*
D03*
X138000Y72000D02*
D03*
X112100Y109900D02*
D03*
X86000Y73000D02*
D03*
X266000Y528000D02*
D03*
X279000D02*
D03*
X273000Y535000D02*
D03*
X266000Y543000D02*
D03*
X280000D02*
D03*
X273000Y550000D02*
D03*
X30000Y455000D02*
D03*
Y470000D02*
D03*
Y485000D02*
D03*
Y500000D02*
D03*
X39000D02*
D03*
Y485000D02*
D03*
Y470000D02*
D03*
Y455000D02*
D03*
X150000Y445000D02*
D03*
X142000Y437999D02*
D03*
X73250Y427500D02*
D03*
X21750Y411000D02*
D03*
X30750Y362000D02*
D03*
D22*
X317000Y612750D02*
D03*
X273000D02*
D03*
D23*
X316000Y567250D02*
D03*
X274000D02*
D03*
D24*
X22250Y372000D02*
D03*
Y328000D02*
D03*
Y442000D02*
D03*
Y398000D02*
D03*
D25*
X67750Y371000D02*
D03*
Y329000D02*
D03*
Y441000D02*
D03*
Y399000D02*
D03*
D26*
X120000Y516200D02*
D03*
Y541600D02*
D03*
Y567000D02*
D03*
Y490800D02*
D03*
D27*
X86600Y17550D02*
D03*
X112000Y51850D02*
D03*
X137400Y17550D02*
D03*
D28*
X22250Y442000D02*
X66750D01*
X67750Y441000D01*
X22250Y372000D02*
X72000D01*
X67750Y433250D02*
Y441000D01*
X72000Y372000D02*
X85000Y385000D01*
Y416000D01*
X67750Y433250D02*
X85000Y416000D01*
M02*
