G04 Layer_Color=65535*
%FSLAX44Y44*%
%MOMM*%
G71*
G01*
G75*
%ADD15C,0.2540*%
G36*
X26918Y312985D02*
X26977D01*
X27051Y312970D01*
X27125Y312941D01*
X27170Y312926D01*
X27185Y312911D01*
X39579Y305759D01*
X39638Y305729D01*
X39683Y305700D01*
X39712Y305685D01*
X39727Y305670D01*
X39816Y305581D01*
X39831Y305551D01*
X39846Y305537D01*
X39875Y305477D01*
X39905Y305418D01*
X39920Y305374D01*
Y305359D01*
X39949Y305285D01*
X39964Y305226D01*
X39994Y305181D01*
Y305166D01*
X40009Y305078D01*
X39994Y304989D01*
X39979Y304930D01*
Y304915D01*
X39949Y304811D01*
X39920Y304737D01*
X39905Y304678D01*
X39890Y304663D01*
X39846Y304574D01*
X39786Y304515D01*
X39742Y304471D01*
X39727Y304456D01*
X39668Y304396D01*
X39609Y304352D01*
X39564Y304322D01*
X39550D01*
X27185Y297170D01*
X27111Y297126D01*
X27037Y297096D01*
X26992Y297081D01*
X26977D01*
X26903Y297066D01*
X26829Y297052D01*
X26681D01*
X26607Y297066D01*
X26548Y297081D01*
X26533D01*
X26459Y297111D01*
X26400Y297140D01*
X26355Y297155D01*
X26341Y297170D01*
X26267Y297215D01*
X26207Y297259D01*
X26163Y297303D01*
X26148Y297318D01*
X26089Y297377D01*
X26044Y297422D01*
X26030Y297466D01*
X26015Y297481D01*
X25985Y297555D01*
X25956Y297614D01*
X25941Y297673D01*
Y297688D01*
X25926Y297762D01*
X25911Y297851D01*
Y297896D01*
Y297925D01*
Y312171D01*
Y312245D01*
X25926Y312304D01*
X25941Y312363D01*
Y312378D01*
X25970Y312452D01*
X26000Y312526D01*
X26015Y312571D01*
X26030Y312585D01*
X26074Y312659D01*
X26119Y312719D01*
X26148Y312763D01*
X26163Y312778D01*
X26281Y312867D01*
X26326Y312896D01*
X26341Y312911D01*
X26415Y312941D01*
X26474Y312970D01*
X26518Y312985D01*
X26533D01*
X26622Y313000D01*
X26844D01*
X26918Y312985D01*
D02*
G37*
G36*
X83877Y538640D02*
X84025D01*
X84188Y538610D01*
X84381Y538581D01*
X84573Y538536D01*
X84766Y538477D01*
X84795Y538462D01*
X84854Y538448D01*
X84943Y538403D01*
X85077Y538344D01*
X85210Y538270D01*
X85358Y538196D01*
X85654Y537974D01*
X85669Y537959D01*
X85713Y537915D01*
X85787Y537855D01*
X85861Y537766D01*
X85965Y537648D01*
X86054Y537515D01*
X86143Y537367D01*
X86232Y537204D01*
X86246Y537189D01*
X86261Y537130D01*
X86291Y537041D01*
X86335Y536908D01*
X86380Y536759D01*
X86409Y536597D01*
X86424Y536419D01*
X86439Y536212D01*
Y536197D01*
Y536138D01*
Y536049D01*
X86424Y535945D01*
X86409Y535812D01*
X86395Y535678D01*
X86320Y535397D01*
Y535382D01*
X86306Y535338D01*
X86276Y535264D01*
X86232Y535190D01*
X86128Y534982D01*
X85980Y534775D01*
X85965Y534760D01*
X85950Y534731D01*
X85891Y534686D01*
X85832Y534612D01*
X85669Y534464D01*
X85462Y534316D01*
X85447Y534301D01*
X85402Y534286D01*
X85343Y534257D01*
X85254Y534212D01*
X85151Y534153D01*
X85032Y534109D01*
X84766Y534020D01*
X84780D01*
X84810Y534005D01*
X84854Y533990D01*
X84914Y533976D01*
X85091Y533916D01*
X85299Y533828D01*
X85521Y533709D01*
X85758Y533561D01*
X85980Y533398D01*
X86172Y533191D01*
X86187Y533161D01*
X86246Y533087D01*
X86320Y532969D01*
X86424Y532791D01*
X86513Y532584D01*
X86587Y532332D01*
X86646Y532051D01*
X86661Y531740D01*
Y531710D01*
Y531621D01*
X86646Y531503D01*
X86631Y531340D01*
X86602Y531147D01*
X86557Y530955D01*
X86498Y530747D01*
X86409Y530540D01*
X86395Y530510D01*
X86365Y530451D01*
X86306Y530362D01*
X86232Y530229D01*
X86128Y530096D01*
X86010Y529948D01*
X85876Y529800D01*
X85713Y529652D01*
X85698Y529637D01*
X85639Y529592D01*
X85550Y529518D01*
X85432Y529444D01*
X85284Y529355D01*
X85106Y529252D01*
X84914Y529163D01*
X84706Y529089D01*
X84677Y529074D01*
X84603Y529059D01*
X84499Y529030D01*
X84336Y529000D01*
X84158Y528956D01*
X83951Y528926D01*
X83729Y528911D01*
X83477Y528896D01*
X83344D01*
X83211Y528911D01*
X83033Y528926D01*
X82826Y528941D01*
X82604Y528970D01*
X82381Y529015D01*
X82174Y529074D01*
X82144Y529089D01*
X82085Y529104D01*
X81982Y529148D01*
X81863Y529207D01*
X81715Y529281D01*
X81567Y529370D01*
X81256Y529592D01*
X81241Y529607D01*
X81197Y529652D01*
X81123Y529726D01*
X81049Y529814D01*
X80945Y529933D01*
X80841Y530066D01*
X80738Y530214D01*
X80649Y530377D01*
X80634Y530392D01*
X80604Y530451D01*
X80560Y530555D01*
X80516Y530673D01*
X80442Y530821D01*
X80382Y530984D01*
X80308Y531177D01*
X80249Y531369D01*
X80752Y531591D01*
X80782Y531606D01*
X80841Y531621D01*
X80930Y531636D01*
X81034Y531651D01*
X81108D01*
X81197Y531621D01*
X81271Y531591D01*
X81286Y531577D01*
X81330Y531547D01*
X81375Y531488D01*
X81419Y531414D01*
X81434Y531399D01*
X81448Y531354D01*
X81463Y531340D01*
X81478Y531295D01*
Y531281D01*
X81493Y531266D01*
X81508Y531221D01*
X81537Y531162D01*
X81611Y531029D01*
X81700Y530851D01*
Y530836D01*
X81730Y530807D01*
X81760Y530762D01*
X81789Y530703D01*
X81908Y530555D01*
X82056Y530392D01*
X82071Y530377D01*
X82100Y530362D01*
X82144Y530318D01*
X82219Y530274D01*
X82293Y530214D01*
X82396Y530155D01*
X82618Y530037D01*
X82633D01*
X82678Y530022D01*
X82752Y529992D01*
X82855Y529977D01*
X82974Y529948D01*
X83122Y529918D01*
X83285Y529903D01*
X83551D01*
X83640Y529918D01*
X83759D01*
X83892Y529948D01*
X84040Y529977D01*
X84188Y530007D01*
X84336Y530066D01*
X84351Y530081D01*
X84395Y530096D01*
X84469Y530125D01*
X84558Y530185D01*
X84766Y530303D01*
X84958Y530481D01*
X84973Y530496D01*
X85002Y530525D01*
X85047Y530584D01*
X85106Y530658D01*
X85225Y530836D01*
X85343Y531058D01*
Y531073D01*
X85358Y531118D01*
X85387Y531177D01*
X85417Y531266D01*
X85462Y531458D01*
X85476Y531695D01*
Y531710D01*
Y531769D01*
Y531843D01*
X85462Y531932D01*
X85432Y532169D01*
X85358Y532406D01*
Y532421D01*
X85343Y532465D01*
X85314Y532524D01*
X85269Y532598D01*
X85165Y532776D01*
X85077Y532865D01*
X84988Y532954D01*
X84973Y532969D01*
X84943Y532998D01*
X84884Y533043D01*
X84795Y533087D01*
X84691Y533146D01*
X84558Y533205D01*
X84410Y533265D01*
X84233Y533324D01*
X84218D01*
X84144Y533354D01*
X84040Y533368D01*
X83907Y533398D01*
X83729Y533428D01*
X83522Y533442D01*
X83285Y533472D01*
X83018D01*
Y534331D01*
X83240D01*
X83374Y534346D01*
X83537Y534361D01*
X83714Y534375D01*
X83892Y534405D01*
X84055Y534449D01*
X84070D01*
X84129Y534479D01*
X84203Y534509D01*
X84306Y534538D01*
X84529Y534657D01*
X84647Y534731D01*
X84751Y534805D01*
X84766Y534820D01*
X84795Y534849D01*
X84840Y534894D01*
X84914Y534953D01*
X85032Y535116D01*
X85106Y535219D01*
X85151Y535323D01*
Y535338D01*
X85165Y535382D01*
X85195Y535442D01*
X85225Y535530D01*
X85239Y535619D01*
X85269Y535738D01*
X85284Y536004D01*
Y536019D01*
Y536078D01*
Y536152D01*
X85269Y536256D01*
X85225Y536478D01*
X85151Y536715D01*
Y536730D01*
X85121Y536774D01*
X85091Y536819D01*
X85062Y536893D01*
X84943Y537056D01*
X84780Y537219D01*
X84766Y537233D01*
X84736Y537248D01*
X84691Y537293D01*
X84632Y537337D01*
X84469Y537441D01*
X84247Y537529D01*
X84233D01*
X84203Y537544D01*
X84129Y537559D01*
X84055Y537589D01*
X83951Y537604D01*
X83848Y537618D01*
X83581Y537633D01*
X83448D01*
X83359Y537618D01*
X83152Y537589D01*
X82914Y537515D01*
X82900D01*
X82870Y537500D01*
X82811Y537470D01*
X82737Y537441D01*
X82559Y537352D01*
X82381Y537219D01*
X82367Y537204D01*
X82337Y537189D01*
X82293Y537145D01*
X82248Y537085D01*
X82115Y536937D01*
X81982Y536759D01*
Y536745D01*
X81952Y536715D01*
X81922Y536671D01*
X81893Y536597D01*
X81819Y536419D01*
X81745Y536197D01*
Y536182D01*
X81730Y536167D01*
X81700Y536093D01*
X81656Y536004D01*
X81582Y535915D01*
X81567Y535901D01*
X81508Y535886D01*
X81419Y535856D01*
X81300Y535841D01*
X81212D01*
X81152Y535856D01*
X80530Y535960D01*
Y535975D01*
Y535989D01*
X80545Y536063D01*
X80575Y536197D01*
X80604Y536345D01*
X80664Y536523D01*
X80723Y536730D01*
X80797Y536922D01*
X80886Y537115D01*
X80901Y537145D01*
X80930Y537204D01*
X80990Y537293D01*
X81078Y537411D01*
X81167Y537544D01*
X81286Y537678D01*
X81419Y537826D01*
X81567Y537959D01*
X81582Y537974D01*
X81641Y538018D01*
X81730Y538077D01*
X81833Y538152D01*
X81982Y538240D01*
X82130Y538329D01*
X82307Y538403D01*
X82500Y538477D01*
X82529Y538492D01*
X82589Y538507D01*
X82707Y538536D01*
X82840Y538566D01*
X83018Y538596D01*
X83211Y538625D01*
X83433Y538655D01*
X83759D01*
X83877Y538640D01*
D02*
G37*
G36*
X78354Y532287D02*
Y532273D01*
Y532258D01*
Y532213D01*
Y532154D01*
X78339Y532006D01*
X78324Y531814D01*
X78309Y531591D01*
X78265Y531340D01*
X78220Y531103D01*
X78146Y530851D01*
X78131Y530821D01*
X78117Y530747D01*
X78072Y530629D01*
X77998Y530481D01*
X77924Y530318D01*
X77821Y530140D01*
X77702Y529963D01*
X77569Y529785D01*
X77554Y529770D01*
X77495Y529711D01*
X77421Y529637D01*
X77302Y529548D01*
X77169Y529429D01*
X77006Y529326D01*
X76828Y529222D01*
X76621Y529118D01*
X76591Y529104D01*
X76517Y529089D01*
X76399Y529044D01*
X76251Y529015D01*
X76058Y528970D01*
X75836Y528926D01*
X75599Y528911D01*
X75333Y528896D01*
X75229D01*
X75096Y528911D01*
X74933Y528926D01*
X74726Y528941D01*
X74503Y528970D01*
X74252Y529015D01*
X74000Y529074D01*
Y529089D01*
Y529104D01*
Y529193D01*
Y529311D01*
X74015Y529459D01*
Y529474D01*
Y529489D01*
X74030Y529577D01*
X74044Y529696D01*
X74059Y529829D01*
Y529844D01*
X74074Y529903D01*
X74104Y529963D01*
X74148Y530022D01*
X74163Y530037D01*
X74207Y530066D01*
X74267Y530081D01*
X74355Y530096D01*
X74444D01*
X74533Y530066D01*
X74666Y530037D01*
X74681D01*
X74711Y530022D01*
X74755D01*
X74815Y530007D01*
X74889Y529992D01*
X74992D01*
X75214Y529977D01*
X75288D01*
X75377Y529992D01*
X75481D01*
X75599Y530007D01*
X75733Y530037D01*
X75999Y530111D01*
X76014D01*
X76058Y530140D01*
X76118Y530170D01*
X76206Y530214D01*
X76384Y530333D01*
X76577Y530510D01*
X76591Y530525D01*
X76621Y530555D01*
X76666Y530629D01*
X76710Y530703D01*
X76769Y530807D01*
X76828Y530925D01*
X76888Y531073D01*
X76932Y531221D01*
Y531236D01*
X76947Y531295D01*
X76976Y531399D01*
X77006Y531517D01*
X77021Y531680D01*
X77050Y531858D01*
X77065Y532051D01*
Y532273D01*
Y538551D01*
X78354D01*
Y532287D01*
D02*
G37*
D15*
X107500Y552500D02*
Y565000D01*
X101000D02*
X107500D01*
X54500D02*
X69500D01*
X54500Y553000D02*
Y565000D01*
X54750Y245000D02*
Y257500D01*
Y245000D02*
X69750D01*
X107250Y245500D02*
Y258000D01*
X101250Y245500D02*
X107250D01*
M02*
