G04 Layer_Color=8388736*
%FSLAX44Y44*%
%MOMM*%
G71*
G01*
G75*
%ADD29R,1.9032X1.5032*%
%ADD30R,1.8600X0.4100*%
%ADD31R,1.9032X2.7032*%
%ADD32R,2.7032X2.2532*%
%ADD33C,3.0000*%
%ADD34C,5.4032*%
%ADD35C,1.7032*%
%ADD36R,1.7032X1.7032*%
%ADD37C,0.3000*%
D29*
X105250Y505000D02*
D03*
Y305000D02*
D03*
Y345000D02*
D03*
Y385000D02*
D03*
Y465000D02*
D03*
Y425000D02*
D03*
D30*
X55000Y505000D02*
D03*
Y500000D02*
D03*
Y495000D02*
D03*
Y490000D02*
D03*
Y485000D02*
D03*
Y480000D02*
D03*
Y475000D02*
D03*
Y470000D02*
D03*
Y465000D02*
D03*
Y460000D02*
D03*
Y455000D02*
D03*
Y450000D02*
D03*
Y445000D02*
D03*
Y440000D02*
D03*
Y435000D02*
D03*
Y430000D02*
D03*
Y425000D02*
D03*
Y420000D02*
D03*
Y415000D02*
D03*
Y410000D02*
D03*
X54750Y405000D02*
D03*
Y400000D02*
D03*
Y395000D02*
D03*
Y390000D02*
D03*
Y385000D02*
D03*
Y380000D02*
D03*
Y375000D02*
D03*
Y370000D02*
D03*
Y365000D02*
D03*
Y360000D02*
D03*
Y355000D02*
D03*
Y350000D02*
D03*
Y345000D02*
D03*
Y340000D02*
D03*
Y335000D02*
D03*
Y330000D02*
D03*
Y325000D02*
D03*
Y320000D02*
D03*
Y315000D02*
D03*
Y310000D02*
D03*
Y305000D02*
D03*
D31*
X105250Y535000D02*
D03*
Y275000D02*
D03*
X54750Y535000D02*
D03*
Y275000D02*
D03*
D32*
X85500Y564000D02*
D03*
Y246000D02*
D03*
D33*
X50000Y605000D02*
D03*
D34*
X350000Y140000D02*
D03*
X50000D02*
D03*
D35*
X440000Y308400D02*
D03*
D36*
Y283000D02*
D03*
D37*
X105250Y385000D02*
D03*
X376000Y476000D02*
D03*
Y336000D02*
D03*
X411000Y266000D02*
D03*
X376000Y196000D02*
D03*
Y56000D02*
D03*
X341000Y546000D02*
D03*
X306000Y476000D02*
D03*
X341000Y406000D02*
D03*
X306000Y336000D02*
D03*
X341000Y266000D02*
D03*
X306000Y196000D02*
D03*
Y56000D02*
D03*
X271000Y406000D02*
D03*
Y266000D02*
D03*
X236000Y196000D02*
D03*
X271000Y126000D02*
D03*
X236000Y56000D02*
D03*
X201000Y546000D02*
D03*
X166000Y476000D02*
D03*
Y336000D02*
D03*
X201000Y266000D02*
D03*
X166000Y196000D02*
D03*
X201000Y126000D02*
D03*
X166000Y56000D02*
D03*
X131000Y266000D02*
D03*
X96000Y196000D02*
D03*
X131000Y126000D02*
D03*
X96000Y56000D02*
D03*
X26000Y196000D02*
D03*
Y56000D02*
D03*
X138000Y72000D02*
D03*
X112100Y109900D02*
D03*
X86000Y73000D02*
D03*
X266000Y528000D02*
D03*
X279000D02*
D03*
X273000Y535000D02*
D03*
X266000Y543000D02*
D03*
X280000D02*
D03*
X273000Y550000D02*
D03*
X30000Y455000D02*
D03*
Y470000D02*
D03*
Y485000D02*
D03*
Y500000D02*
D03*
X39000D02*
D03*
Y485000D02*
D03*
Y470000D02*
D03*
Y455000D02*
D03*
X150000Y445000D02*
D03*
X142000Y437999D02*
D03*
X73250Y427500D02*
D03*
X21750Y411000D02*
D03*
X30750Y362000D02*
D03*
M02*
