G04 Layer_Physical_Order=2*
G04 Layer_Color=16711680*
%FSLAX44Y44*%
%MOMM*%
G71*
G01*
G75*
%ADD18C,1.0000*%
%ADD19C,0.2500*%
%ADD24C,1.7000*%
%ADD25R,1.7000X1.7000*%
%ADD26C,0.6000*%
%ADD27R,0.8000X2.0000*%
%ADD28R,1.0000X1.7000*%
%ADD29C,9.0000*%
G36*
X583195Y1213997D02*
X586229Y1212935D01*
X588951Y1211225D01*
X591224Y1208951D01*
X592935Y1206229D01*
X593997Y1203195D01*
X594392Y1199685D01*
X594392Y20315D01*
X593997Y16805D01*
X592935Y13771D01*
X591225Y11049D01*
X588951Y8775D01*
X586229Y7065D01*
X583195Y6003D01*
X579685Y5608D01*
X20315Y5608D01*
X16805Y6003D01*
X13771Y7065D01*
X11049Y8775D01*
X8775Y11049D01*
X7065Y13771D01*
X6003Y16805D01*
X5608Y20314D01*
X5608Y330000D01*
X5546Y330311D01*
X5573Y330628D01*
X5071Y335078D01*
X4880Y335679D01*
X4792Y336303D01*
X3312Y340530D01*
X2992Y341073D01*
X2768Y341661D01*
X385Y345453D01*
X-48Y345911D01*
X-398Y346435D01*
X-3565Y349602D01*
X-4089Y349952D01*
X-4547Y350385D01*
X-8339Y352768D01*
X-8928Y352992D01*
X-9470Y353312D01*
X-13697Y354792D01*
X-14321Y354880D01*
X-14922Y355071D01*
X-19372Y355573D01*
X-19689Y355546D01*
X-20000Y355608D01*
X-44685Y355608D01*
X-48195Y356003D01*
X-51229Y357065D01*
X-53951Y358775D01*
X-56225Y361049D01*
X-57935Y363771D01*
X-58997Y366805D01*
X-59392Y370315D01*
X-59392Y724685D01*
X-58997Y728195D01*
X-57935Y731229D01*
X-56225Y733951D01*
X-53951Y736225D01*
X-51229Y737935D01*
X-48195Y738997D01*
X-44685Y739392D01*
X65583D01*
X65896Y739455D01*
X70977Y739055D01*
X76238Y737792D01*
X81236Y735721D01*
X85849Y732894D01*
X89724Y729585D01*
X89902Y729319D01*
X153186Y666035D01*
X155005Y664819D01*
X157151Y664392D01*
X200000D01*
X200199Y664432D01*
X200400Y664407D01*
X207516Y664915D01*
X207905Y665022D01*
X208308Y665029D01*
X215279Y666546D01*
X215648Y666707D01*
X216046Y666771D01*
X222730Y669264D01*
X223074Y669476D01*
X223458Y669597D01*
X229720Y673016D01*
X230029Y673274D01*
X230393Y673448D01*
X236104Y677723D01*
X236373Y678023D01*
X236708Y678247D01*
X241753Y683292D01*
X241977Y683627D01*
X242277Y683896D01*
X246552Y689607D01*
X246726Y689971D01*
X246984Y690280D01*
X250403Y696542D01*
X250524Y696926D01*
X250736Y697270D01*
X253229Y703954D01*
X253293Y704352D01*
X253454Y704721D01*
X253750Y706080D01*
X255066Y706154D01*
X256485Y701974D01*
X259209Y696448D01*
X262632Y691326D01*
X266695Y686693D01*
X271327Y682631D01*
X276450Y679208D01*
X281975Y676483D01*
X287809Y674503D01*
X293852Y673301D01*
X300000Y672898D01*
X306148Y673301D01*
X312191Y674503D01*
X318025Y676483D01*
X323550Y679208D01*
X328673Y682631D01*
X333305Y686693D01*
X337368Y691326D01*
X340790Y696448D01*
X343516Y701974D01*
X345496Y707808D01*
X346698Y713851D01*
X347101Y719999D01*
X346698Y726147D01*
X345496Y732189D01*
X343516Y738024D01*
X340790Y743549D01*
X337368Y748672D01*
X333305Y753304D01*
X328673Y757366D01*
X323550Y760789D01*
X318025Y763514D01*
X312191Y765495D01*
X306148Y766697D01*
X300000Y767100D01*
X293852Y766697D01*
X287809Y765495D01*
X281975Y763514D01*
X276450Y760789D01*
X271327Y757366D01*
X266695Y753304D01*
X262632Y748672D01*
X259209Y743549D01*
X256878Y738821D01*
X255608Y739117D01*
X255608Y1050882D01*
X256878Y1051178D01*
X259209Y1046450D01*
X262632Y1041327D01*
X266695Y1036695D01*
X271327Y1032632D01*
X276450Y1029210D01*
X281975Y1026485D01*
X287809Y1024504D01*
X293852Y1023302D01*
X300000Y1022899D01*
X306148Y1023302D01*
X312191Y1024504D01*
X318025Y1026485D01*
X323550Y1029210D01*
X328673Y1032632D01*
X333305Y1036695D01*
X337368Y1041327D01*
X340790Y1046450D01*
X343516Y1051975D01*
X345496Y1057809D01*
X346698Y1063852D01*
X347101Y1070000D01*
X346698Y1076148D01*
X345496Y1082191D01*
X343516Y1088025D01*
X340790Y1093550D01*
X337368Y1098673D01*
X333305Y1103305D01*
X328673Y1107368D01*
X323550Y1110790D01*
X318025Y1113515D01*
X312191Y1115496D01*
X306148Y1116698D01*
X300000Y1117101D01*
X293852Y1116698D01*
X287809Y1115496D01*
X281975Y1113515D01*
X276450Y1110790D01*
X271327Y1107368D01*
X266695Y1103305D01*
X262632Y1098673D01*
X259209Y1093550D01*
X256878Y1088822D01*
X255608Y1089118D01*
Y1199685D01*
X256003Y1203195D01*
X257065Y1206229D01*
X258775Y1208951D01*
X261049Y1211225D01*
X263771Y1212935D01*
X266805Y1213997D01*
X270315Y1214392D01*
X579685D01*
X583195Y1213997D01*
D02*
G37*
%LPC*%
G36*
X252000Y489591D02*
X249259Y489230D01*
X246705Y488172D01*
X244511Y486489D01*
X242828Y484295D01*
X241770Y481741D01*
X241409Y479000D01*
X241770Y476259D01*
X242828Y473705D01*
X244511Y471511D01*
X246705Y469828D01*
X249259Y468770D01*
X252000Y468409D01*
X254741Y468770D01*
X257295Y469828D01*
X259489Y471511D01*
X261172Y473705D01*
X262230Y476259D01*
X262591Y479000D01*
X262230Y481741D01*
X261172Y484295D01*
X259489Y486489D01*
X257295Y488172D01*
X254741Y489230D01*
X252000Y489591D01*
D02*
G37*
G36*
X404400Y464191D02*
X401659Y463830D01*
X399105Y462772D01*
X396911Y461089D01*
X395228Y458895D01*
X394170Y456341D01*
X393809Y453600D01*
X394170Y450859D01*
X395228Y448305D01*
X396911Y446111D01*
X399105Y444428D01*
X401659Y443370D01*
X404400Y443009D01*
X407141Y443370D01*
X409695Y444428D01*
X411889Y446111D01*
X413572Y448305D01*
X414630Y450859D01*
X414991Y453600D01*
X414630Y456341D01*
X413572Y458895D01*
X411889Y461089D01*
X409695Y462772D01*
X407141Y463830D01*
X404400Y464191D01*
D02*
G37*
G36*
X150400Y489591D02*
X147659Y489230D01*
X145105Y488172D01*
X142911Y486489D01*
X141228Y484295D01*
X140170Y481741D01*
X139809Y479000D01*
X140170Y476259D01*
X141228Y473705D01*
X142911Y471511D01*
X145105Y469828D01*
X147659Y468770D01*
X150400Y468409D01*
X153141Y468770D01*
X155695Y469828D01*
X157889Y471511D01*
X159572Y473705D01*
X160630Y476259D01*
X160991Y479000D01*
X160630Y481741D01*
X159572Y484295D01*
X157889Y486489D01*
X155695Y488172D01*
X153141Y489230D01*
X150400Y489591D01*
D02*
G37*
G36*
X277400D02*
X274659Y489230D01*
X272105Y488172D01*
X269911Y486489D01*
X268228Y484295D01*
X267170Y481741D01*
X266809Y479000D01*
X267170Y476259D01*
X268228Y473705D01*
X269911Y471511D01*
X272105Y469828D01*
X274659Y468770D01*
X277400Y468409D01*
X280141Y468770D01*
X282695Y469828D01*
X284889Y471511D01*
X286572Y473705D01*
X287630Y476259D01*
X287991Y479000D01*
X287630Y481741D01*
X286572Y484295D01*
X284889Y486489D01*
X282695Y488172D01*
X280141Y489230D01*
X277400Y489591D01*
D02*
G37*
G36*
X353600D02*
X350859Y489230D01*
X348305Y488172D01*
X346111Y486489D01*
X344428Y484295D01*
X343370Y481741D01*
X343009Y479000D01*
X343370Y476259D01*
X344428Y473705D01*
X346111Y471511D01*
X348305Y469828D01*
X350859Y468770D01*
X353600Y468409D01*
X356341Y468770D01*
X358895Y469828D01*
X361089Y471511D01*
X362772Y473705D01*
X363830Y476259D01*
X364191Y479000D01*
X363830Y481741D01*
X362772Y484295D01*
X361089Y486489D01*
X358895Y488172D01*
X356341Y489230D01*
X353600Y489591D01*
D02*
G37*
G36*
X328200D02*
X325459Y489230D01*
X322905Y488172D01*
X320711Y486489D01*
X319028Y484295D01*
X317970Y481741D01*
X317609Y479000D01*
X317970Y476259D01*
X319028Y473705D01*
X320711Y471511D01*
X322905Y469828D01*
X325459Y468770D01*
X328200Y468409D01*
X330941Y468770D01*
X333495Y469828D01*
X335689Y471511D01*
X337372Y473705D01*
X338430Y476259D01*
X338791Y479000D01*
X338430Y481741D01*
X337372Y484295D01*
X335689Y486489D01*
X333495Y488172D01*
X330941Y489230D01*
X328200Y489591D01*
D02*
G37*
G36*
X302800D02*
X300059Y489230D01*
X297505Y488172D01*
X295311Y486489D01*
X293628Y484295D01*
X292570Y481741D01*
X292209Y479000D01*
X292570Y476259D01*
X293628Y473705D01*
X295311Y471511D01*
X297505Y469828D01*
X300059Y468770D01*
X302800Y468409D01*
X305541Y468770D01*
X308095Y469828D01*
X310289Y471511D01*
X311972Y473705D01*
X313030Y476259D01*
X313391Y479000D01*
X313030Y481741D01*
X311972Y484295D01*
X310289Y486489D01*
X308095Y488172D01*
X305541Y489230D01*
X302800Y489591D01*
D02*
G37*
G36*
X97000Y663039D02*
X96220Y662884D01*
X95558Y662442D01*
X95558Y662442D01*
X27558Y594442D01*
X27116Y593780D01*
X26961Y593000D01*
Y572000D01*
Y528000D01*
X26961Y528000D01*
X27116Y527220D01*
X27558Y526558D01*
X32558Y521558D01*
X33220Y521116D01*
X34000Y520961D01*
X60000D01*
X60780Y521116D01*
X61442Y521558D01*
X61442Y521558D01*
X66442Y526558D01*
X66884Y527220D01*
X67039Y528000D01*
Y529000D01*
X67039Y571155D01*
X111845Y615961D01*
X376156Y615961D01*
X469961Y522155D01*
X469961Y418583D01*
X469961Y418583D01*
X470116Y417803D01*
X470558Y417141D01*
X470558Y417141D01*
X479141Y408558D01*
X479141Y408558D01*
X479803Y408116D01*
X480583Y407961D01*
X505583D01*
X506363Y408116D01*
X507025Y408558D01*
X507025Y408558D01*
X514442Y415975D01*
X514884Y416637D01*
X515039Y417417D01*
X515039Y549000D01*
X515039Y549000D01*
X514884Y549780D01*
X514442Y550442D01*
X514442Y550442D01*
X402442Y662442D01*
X401780Y662884D01*
X401000Y663039D01*
X326492Y663039D01*
X326295Y663000D01*
X326094D01*
X326000Y662981D01*
X325906Y663000D01*
X325705D01*
X325508Y663039D01*
X226492Y663039D01*
X226295Y663000D01*
X226094D01*
X226000Y662981D01*
X225906Y663000D01*
X225705D01*
X225508Y663039D01*
X97000Y663039D01*
X97000Y663039D01*
D02*
G37*
G36*
X550000Y67082D02*
X546667Y66754D01*
X543463Y65782D01*
X540510Y64203D01*
X537921Y62079D01*
X535797Y59490D01*
X534218Y56537D01*
X533246Y53333D01*
X532918Y50000D01*
X533246Y46667D01*
X534218Y43463D01*
X535797Y40510D01*
X537921Y37921D01*
X540510Y35797D01*
X543463Y34218D01*
X546667Y33246D01*
X550000Y32918D01*
X553333Y33246D01*
X556537Y34218D01*
X559490Y35797D01*
X562079Y37921D01*
X564203Y40510D01*
X565782Y43463D01*
X566754Y46667D01*
X567082Y50000D01*
X566754Y53333D01*
X565782Y56537D01*
X564203Y59490D01*
X562079Y62079D01*
X559490Y64203D01*
X556537Y65782D01*
X553333Y66754D01*
X550000Y67082D01*
D02*
G37*
G36*
X50000D02*
X46667Y66754D01*
X43463Y65782D01*
X40510Y64203D01*
X37921Y62079D01*
X35797Y59490D01*
X34218Y56537D01*
X33246Y53333D01*
X32918Y50000D01*
X33246Y46667D01*
X34218Y43463D01*
X35797Y40510D01*
X37921Y37921D01*
X40510Y35797D01*
X43463Y34218D01*
X46667Y33246D01*
X50000Y32918D01*
X53333Y33246D01*
X56537Y34218D01*
X59490Y35797D01*
X62079Y37921D01*
X64203Y40510D01*
X65782Y43463D01*
X66754Y46667D01*
X67082Y50000D01*
X66754Y53333D01*
X65782Y56537D01*
X64203Y59490D01*
X62079Y62079D01*
X59490Y64203D01*
X56537Y65782D01*
X53333Y66754D01*
X50000Y67082D01*
D02*
G37*
G36*
X150400Y464191D02*
X147659Y463830D01*
X145105Y462772D01*
X142911Y461089D01*
X141228Y458895D01*
X140170Y456341D01*
X139809Y453600D01*
X140170Y450859D01*
X141228Y448305D01*
X142911Y446111D01*
X145105Y444428D01*
X147659Y443370D01*
X150400Y443009D01*
X153141Y443370D01*
X155695Y444428D01*
X157889Y446111D01*
X159572Y448305D01*
X160630Y450859D01*
X160991Y453600D01*
X160630Y456341D01*
X159572Y458895D01*
X157889Y461089D01*
X155695Y462772D01*
X153141Y463830D01*
X150400Y464191D01*
D02*
G37*
G36*
X379000D02*
X376259Y463830D01*
X373705Y462772D01*
X371511Y461089D01*
X369828Y458895D01*
X368770Y456341D01*
X368409Y453600D01*
X368770Y450859D01*
X369828Y448305D01*
X371511Y446111D01*
X373705Y444428D01*
X376259Y443370D01*
X379000Y443009D01*
X381741Y443370D01*
X384295Y444428D01*
X386489Y446111D01*
X388172Y448305D01*
X389230Y450859D01*
X389591Y453600D01*
X389230Y456341D01*
X388172Y458895D01*
X386489Y461089D01*
X384295Y462772D01*
X381741Y463830D01*
X379000Y464191D01*
D02*
G37*
G36*
X353600D02*
X350859Y463830D01*
X348305Y462772D01*
X346111Y461089D01*
X344428Y458895D01*
X343370Y456341D01*
X343009Y453600D01*
X343370Y450859D01*
X344428Y448305D01*
X346111Y446111D01*
X348305Y444428D01*
X350859Y443370D01*
X353600Y443009D01*
X356341Y443370D01*
X358895Y444428D01*
X361089Y446111D01*
X362772Y448305D01*
X363830Y450859D01*
X364191Y453600D01*
X363830Y456341D01*
X362772Y458895D01*
X361089Y461089D01*
X358895Y462772D01*
X356341Y463830D01*
X353600Y464191D01*
D02*
G37*
G36*
X328200D02*
X325459Y463830D01*
X322905Y462772D01*
X320711Y461089D01*
X319028Y458895D01*
X317970Y456341D01*
X317609Y453600D01*
X317970Y450859D01*
X319028Y448305D01*
X320711Y446111D01*
X322905Y444428D01*
X325459Y443370D01*
X328200Y443009D01*
X330941Y443370D01*
X333495Y444428D01*
X335689Y446111D01*
X337372Y448305D01*
X338430Y450859D01*
X338791Y453600D01*
X338430Y456341D01*
X337372Y458895D01*
X335689Y461089D01*
X333495Y462772D01*
X330941Y463830D01*
X328200Y464191D01*
D02*
G37*
G36*
X520000Y767101D02*
X513852Y766698D01*
X507809Y765496D01*
X501975Y763515D01*
X496450Y760790D01*
X491327Y757368D01*
X486695Y753305D01*
X482632Y748673D01*
X479210Y743550D01*
X476484Y738025D01*
X474504Y732191D01*
X473302Y726148D01*
X472899Y720000D01*
X473302Y713852D01*
X474504Y707809D01*
X476484Y701975D01*
X479210Y696450D01*
X482632Y691327D01*
X486695Y686695D01*
X491327Y682632D01*
X496450Y679210D01*
X501975Y676485D01*
X507809Y674504D01*
X513852Y673302D01*
X520000Y672899D01*
X526148Y673302D01*
X532191Y674504D01*
X538025Y676485D01*
X543550Y679210D01*
X548673Y682632D01*
X553305Y686695D01*
X557368Y691327D01*
X560790Y696450D01*
X563516Y701975D01*
X565496Y707809D01*
X566698Y713852D01*
X567101Y720000D01*
X566698Y726148D01*
X565496Y732191D01*
X563516Y738025D01*
X560790Y743550D01*
X557368Y748673D01*
X553305Y753305D01*
X548673Y757368D01*
X543550Y760790D01*
X538025Y763515D01*
X532191Y765496D01*
X526148Y766698D01*
X520000Y767101D01*
D02*
G37*
G36*
X112000Y601098D02*
X110049Y600710D01*
X108395Y599605D01*
X107290Y597951D01*
X107082Y596906D01*
X107015Y596731D01*
X106966Y596445D01*
X106913Y596236D01*
X106841Y596021D01*
X106747Y595798D01*
X106629Y595567D01*
X106486Y595326D01*
X106331Y595099D01*
X105965Y594651D01*
X102657Y591343D01*
X101939Y590268D01*
X101686Y589000D01*
Y440000D01*
X101939Y438732D01*
X102657Y437657D01*
X116657Y423657D01*
X117732Y422939D01*
X119000Y422686D01*
X275200D01*
X276468Y422939D01*
X277543Y423657D01*
X293444Y439558D01*
X293710Y439795D01*
X294366Y440264D01*
X295147Y440721D01*
X296027Y441144D01*
X298286Y441963D01*
X299528Y442302D01*
X302520Y442909D01*
X304192Y443153D01*
X304367Y443216D01*
X305541Y443370D01*
X308095Y444428D01*
X310289Y446111D01*
X311972Y448305D01*
X313030Y450859D01*
X313391Y453600D01*
X313030Y456341D01*
X311972Y458895D01*
X310289Y461089D01*
X308095Y462772D01*
X305541Y463830D01*
X302800Y464191D01*
X300059Y463830D01*
X297505Y462772D01*
X295311Y461089D01*
X293628Y458895D01*
X292570Y456341D01*
X292416Y455167D01*
X292353Y454992D01*
X292106Y453301D01*
X291829Y451785D01*
X291148Y449034D01*
X290771Y447893D01*
X290358Y446856D01*
X289921Y445947D01*
X289464Y445166D01*
X288995Y444510D01*
X288757Y444244D01*
X273827Y429314D01*
X259459D01*
X258973Y430487D01*
X268044Y439558D01*
X268310Y439795D01*
X268966Y440264D01*
X269747Y440721D01*
X270627Y441144D01*
X272886Y441963D01*
X274128Y442302D01*
X277120Y442909D01*
X278792Y443153D01*
X278967Y443216D01*
X280141Y443370D01*
X282695Y444428D01*
X284889Y446111D01*
X286572Y448305D01*
X287630Y450859D01*
X287991Y453600D01*
X287630Y456341D01*
X286572Y458895D01*
X284889Y461089D01*
X282695Y462772D01*
X280141Y463830D01*
X277400Y464191D01*
X274659Y463830D01*
X272105Y462772D01*
X269911Y461089D01*
X268228Y458895D01*
X267170Y456341D01*
X267016Y455167D01*
X266953Y454992D01*
X266706Y453301D01*
X266429Y451785D01*
X265748Y449034D01*
X265371Y447893D01*
X264958Y446856D01*
X264521Y445947D01*
X264064Y445166D01*
X263595Y444510D01*
X263358Y444244D01*
X253428Y434314D01*
X239196D01*
X238670Y435584D01*
X242644Y439558D01*
X242910Y439795D01*
X243566Y440264D01*
X244347Y440721D01*
X245227Y441144D01*
X247486Y441963D01*
X248728Y442302D01*
X251720Y442909D01*
X253392Y443153D01*
X253567Y443216D01*
X254741Y443370D01*
X257295Y444428D01*
X259489Y446111D01*
X261172Y448305D01*
X262230Y450859D01*
X262591Y453600D01*
X262230Y456341D01*
X261172Y458895D01*
X259489Y461089D01*
X257295Y462772D01*
X254741Y463830D01*
X252000Y464191D01*
X249259Y463830D01*
X246705Y462772D01*
X244511Y461089D01*
X242828Y458895D01*
X241770Y456341D01*
X241616Y455167D01*
X241553Y454992D01*
X241306Y453301D01*
X241029Y451785D01*
X240348Y449034D01*
X239971Y447893D01*
X239558Y446856D01*
X239121Y445947D01*
X238664Y445166D01*
X238195Y444510D01*
X237957Y444244D01*
X234527Y440814D01*
X193273D01*
X189842Y444244D01*
X189605Y444510D01*
X189136Y445166D01*
X188679Y445947D01*
X188256Y446827D01*
X187437Y449086D01*
X187098Y450327D01*
X186492Y453320D01*
X186451Y453600D01*
X186494Y453899D01*
X186771Y455415D01*
X187452Y458166D01*
X187829Y459307D01*
X188242Y460344D01*
X188679Y461253D01*
X189136Y462034D01*
X189605Y462690D01*
X189842Y462956D01*
X191343Y464457D01*
X192061Y465532D01*
X192314Y466800D01*
Y471357D01*
X193516Y471766D01*
X193711Y471511D01*
X195905Y469828D01*
X198459Y468770D01*
X201200Y468409D01*
X203941Y468770D01*
X206495Y469828D01*
X208689Y471511D01*
X209416Y472460D01*
X210686Y472029D01*
Y467772D01*
X210556Y467642D01*
X210290Y467405D01*
X209634Y466936D01*
X208853Y466479D01*
X207973Y466055D01*
X205714Y465237D01*
X204472Y464898D01*
X201480Y464291D01*
X199808Y464047D01*
X199633Y463984D01*
X198459Y463830D01*
X195905Y462772D01*
X193711Y461089D01*
X192028Y458895D01*
X190970Y456341D01*
X190609Y453600D01*
X190970Y450859D01*
X192028Y448305D01*
X193711Y446111D01*
X195905Y444428D01*
X198459Y443370D01*
X201200Y443009D01*
X203941Y443370D01*
X206495Y444428D01*
X208689Y446111D01*
X210372Y448305D01*
X211430Y450859D01*
X211584Y452033D01*
X211647Y452208D01*
X211894Y453899D01*
X212171Y455415D01*
X212852Y458166D01*
X213229Y459307D01*
X213642Y460344D01*
X214079Y461253D01*
X214536Y462034D01*
X215005Y462690D01*
X215242Y462956D01*
X216343Y464057D01*
X217061Y465132D01*
X217314Y466400D01*
Y471768D01*
X218584Y472199D01*
X219111Y471511D01*
X221305Y469828D01*
X223859Y468770D01*
X226600Y468409D01*
X229341Y468770D01*
X231895Y469828D01*
X234089Y471511D01*
X235772Y473705D01*
X236830Y476259D01*
X237191Y479000D01*
X236830Y481741D01*
X235772Y484295D01*
X234089Y486489D01*
X231895Y488172D01*
X229341Y489230D01*
X226600Y489591D01*
X223859Y489230D01*
X223608Y489126D01*
X222889Y490202D01*
X308373Y575686D01*
X384853D01*
X385001Y575675D01*
X385326Y575634D01*
X385624Y575578D01*
X385896Y575509D01*
X386143Y575428D01*
X386367Y575337D01*
X386570Y575236D01*
X386755Y575126D01*
X386992Y574958D01*
X387164Y574882D01*
X388049Y574290D01*
X390000Y573902D01*
X391951Y574290D01*
X393605Y575395D01*
X394710Y577049D01*
X395098Y579000D01*
X394710Y580951D01*
X393605Y582605D01*
X391951Y583710D01*
X390000Y584098D01*
X388049Y583710D01*
X387164Y583118D01*
X386992Y583042D01*
X386755Y582874D01*
X386570Y582764D01*
X386367Y582663D01*
X386143Y582572D01*
X385896Y582491D01*
X385624Y582422D01*
X385354Y582372D01*
X384779Y582314D01*
X307000D01*
X305732Y582061D01*
X304657Y581343D01*
X211657Y488343D01*
X210939Y487268D01*
X210686Y486000D01*
Y485971D01*
X209416Y485540D01*
X208689Y486489D01*
X206495Y488172D01*
X203941Y489230D01*
X201200Y489591D01*
X198459Y489230D01*
X197184Y488702D01*
X196464Y489778D01*
X293373Y586686D01*
X377853D01*
X378002Y586675D01*
X378326Y586634D01*
X378623Y586577D01*
X378895Y586508D01*
X379142Y586428D01*
X379366Y586337D01*
X379569Y586236D01*
X379755Y586126D01*
X379991Y585958D01*
X380163Y585881D01*
X381049Y585289D01*
X383000Y584901D01*
X384951Y585289D01*
X386605Y586394D01*
X387710Y588048D01*
X388098Y589999D01*
X387710Y591950D01*
X386605Y593604D01*
X384951Y594709D01*
X383000Y595097D01*
X381049Y594709D01*
X380165Y594118D01*
X379993Y594041D01*
X379757Y593874D01*
X379571Y593764D01*
X379368Y593663D01*
X379144Y593572D01*
X378897Y593491D01*
X378625Y593422D01*
X378355Y593372D01*
X377780Y593314D01*
X292000D01*
X290732Y593061D01*
X289657Y592343D01*
X186657Y489343D01*
X185939Y488268D01*
X185686Y487000D01*
Y485450D01*
X184416Y485019D01*
X183289Y486489D01*
X181095Y488172D01*
X180673Y488346D01*
X179959Y488744D01*
X177337Y490503D01*
X176473Y491170D01*
X172538Y494648D01*
X143483Y523703D01*
X143385Y523817D01*
X143185Y524075D01*
X143014Y524326D01*
X142871Y524567D01*
X142753Y524798D01*
X142659Y525021D01*
X142587Y525236D01*
X142534Y525445D01*
X142485Y525731D01*
X142418Y525906D01*
X142210Y526951D01*
X141105Y528605D01*
X139451Y529710D01*
X137500Y530098D01*
X135549Y529710D01*
X133895Y528605D01*
X132790Y526951D01*
X132402Y525000D01*
X132790Y523049D01*
X133895Y521395D01*
X135549Y520290D01*
X136594Y520082D01*
X136769Y520015D01*
X137055Y519966D01*
X137264Y519913D01*
X137479Y519841D01*
X137702Y519747D01*
X137933Y519629D01*
X138174Y519486D01*
X138401Y519331D01*
X138849Y518965D01*
X166095Y491719D01*
X166150Y491646D01*
X166285Y491343D01*
X166425Y490796D01*
X166524Y490016D01*
X166558Y489020D01*
X166517Y487868D01*
X165873Y483091D01*
X165631Y481889D01*
X165570Y481741D01*
X165511Y481288D01*
X165490Y481184D01*
X165490Y481128D01*
X165209Y479000D01*
X165570Y476259D01*
X166628Y473705D01*
X168311Y471511D01*
X170505Y469828D01*
X173059Y468770D01*
X175800Y468409D01*
X178541Y468770D01*
X181095Y469828D01*
X183289Y471511D01*
X184416Y472981D01*
X185686Y472550D01*
Y468172D01*
X185156Y467642D01*
X184890Y467405D01*
X184234Y466936D01*
X183453Y466479D01*
X182573Y466055D01*
X180314Y465237D01*
X179072Y464898D01*
X176080Y464291D01*
X174408Y464047D01*
X174233Y463984D01*
X173059Y463830D01*
X170505Y462772D01*
X168311Y461089D01*
X166628Y458895D01*
X165570Y456341D01*
X165209Y453600D01*
X165570Y450859D01*
X166628Y448305D01*
X168311Y446111D01*
X170505Y444428D01*
X173059Y443370D01*
X174233Y443216D01*
X174408Y443153D01*
X176099Y442906D01*
X177615Y442629D01*
X180366Y441948D01*
X181507Y441571D01*
X182544Y441158D01*
X183453Y440721D01*
X184234Y440264D01*
X184890Y439795D01*
X185156Y439557D01*
X189130Y435584D01*
X188604Y434314D01*
X122373D01*
X113314Y443372D01*
Y452193D01*
X114584Y452277D01*
X114770Y450859D01*
X115828Y448305D01*
X117511Y446111D01*
X119705Y444428D01*
X122259Y443370D01*
X125000Y443009D01*
X127741Y443370D01*
X130295Y444428D01*
X132489Y446111D01*
X134172Y448305D01*
X135230Y450859D01*
X135591Y453600D01*
X135230Y456341D01*
X134172Y458895D01*
X132489Y461089D01*
X130295Y462772D01*
X127741Y463830D01*
X125000Y464191D01*
X122259Y463830D01*
X119705Y462772D01*
X117511Y461089D01*
X115828Y458895D01*
X114770Y456341D01*
X114584Y454923D01*
X113314Y455007D01*
Y468298D01*
X114500Y468500D01*
X114584Y468500D01*
X135500D01*
Y489500D01*
X128314D01*
Y559853D01*
X128325Y560001D01*
X128366Y560326D01*
X128422Y560624D01*
X128491Y560896D01*
X128572Y561143D01*
X128663Y561367D01*
X128764Y561570D01*
X128874Y561755D01*
X129042Y561992D01*
X129118Y562164D01*
X129710Y563049D01*
X130098Y565000D01*
X129710Y566951D01*
X128605Y568605D01*
X126951Y569710D01*
X125000Y570098D01*
X123049Y569710D01*
X121395Y568605D01*
X120290Y566951D01*
X119902Y565000D01*
X120290Y563049D01*
X120882Y562164D01*
X120958Y561992D01*
X121126Y561755D01*
X121236Y561570D01*
X121337Y561367D01*
X121428Y561143D01*
X121509Y560896D01*
X121578Y560624D01*
X121628Y560354D01*
X121686Y559779D01*
Y490398D01*
X120788Y489500D01*
X114584D01*
X114500Y489500D01*
X113314Y489702D01*
Y573628D01*
X116704Y577017D01*
X116817Y577115D01*
X117075Y577315D01*
X117326Y577486D01*
X117567Y577629D01*
X117798Y577747D01*
X118021Y577841D01*
X118236Y577913D01*
X118445Y577966D01*
X118731Y578015D01*
X118906Y578082D01*
X119951Y578290D01*
X121605Y579395D01*
X122710Y581049D01*
X123098Y583000D01*
X122710Y584951D01*
X121605Y586605D01*
X119951Y587710D01*
X118000Y588098D01*
X116049Y587710D01*
X114395Y586605D01*
X113290Y584951D01*
X113082Y583906D01*
X113015Y583731D01*
X112966Y583445D01*
X112913Y583236D01*
X112841Y583021D01*
X112747Y582798D01*
X112629Y582567D01*
X112486Y582326D01*
X112331Y582099D01*
X111965Y581651D01*
X109487Y579173D01*
X108314Y579659D01*
Y587627D01*
X110704Y590017D01*
X110817Y590115D01*
X111075Y590315D01*
X111326Y590486D01*
X111567Y590629D01*
X111798Y590747D01*
X112021Y590841D01*
X112236Y590913D01*
X112445Y590966D01*
X112731Y591015D01*
X112906Y591082D01*
X113951Y591290D01*
X115605Y592395D01*
X116710Y594049D01*
X117098Y596000D01*
X116710Y597951D01*
X115605Y599605D01*
X113951Y600710D01*
X112000Y601098D01*
D02*
G37*
G36*
X290000Y1197082D02*
X286667Y1196754D01*
X283463Y1195782D01*
X280510Y1194203D01*
X277921Y1192079D01*
X275797Y1189490D01*
X274218Y1186537D01*
X273246Y1183333D01*
X272918Y1180000D01*
X273246Y1176667D01*
X274218Y1173463D01*
X275797Y1170510D01*
X277921Y1167921D01*
X280510Y1165797D01*
X283463Y1164218D01*
X286667Y1163246D01*
X290000Y1162918D01*
X293333Y1163246D01*
X296537Y1164218D01*
X299490Y1165797D01*
X302079Y1167921D01*
X304203Y1170510D01*
X305782Y1173463D01*
X306754Y1176667D01*
X307082Y1180000D01*
X306754Y1183333D01*
X305782Y1186537D01*
X304203Y1189490D01*
X302079Y1192079D01*
X299490Y1194203D01*
X296537Y1195782D01*
X293333Y1196754D01*
X290000Y1197082D01*
D02*
G37*
G36*
X520000Y1117101D02*
X513852Y1116698D01*
X507809Y1115496D01*
X501975Y1113515D01*
X496450Y1110790D01*
X491327Y1107368D01*
X486695Y1103305D01*
X482632Y1098673D01*
X479210Y1093550D01*
X476484Y1088025D01*
X474504Y1082191D01*
X473302Y1076148D01*
X472899Y1070000D01*
X473302Y1063852D01*
X474504Y1057809D01*
X476484Y1051975D01*
X479210Y1046450D01*
X482632Y1041327D01*
X486695Y1036695D01*
X491327Y1032632D01*
X496450Y1029210D01*
X501975Y1026485D01*
X507809Y1024504D01*
X513852Y1023302D01*
X520000Y1022899D01*
X526148Y1023302D01*
X532191Y1024504D01*
X538025Y1026485D01*
X543550Y1029210D01*
X548673Y1032632D01*
X553305Y1036695D01*
X557368Y1041327D01*
X560790Y1046450D01*
X563516Y1051975D01*
X565496Y1057809D01*
X566698Y1063852D01*
X567101Y1070000D01*
X566698Y1076148D01*
X565496Y1082191D01*
X563516Y1088025D01*
X560790Y1093550D01*
X557368Y1098673D01*
X553305Y1103305D01*
X548673Y1107368D01*
X543550Y1110790D01*
X538025Y1113515D01*
X532191Y1115496D01*
X526148Y1116698D01*
X520000Y1117101D01*
D02*
G37*
G36*
X404400Y489591D02*
X401659Y489230D01*
X399105Y488172D01*
X396911Y486489D01*
X395228Y484295D01*
X394170Y481741D01*
X393809Y479000D01*
X394170Y476259D01*
X395228Y473705D01*
X396911Y471511D01*
X399105Y469828D01*
X401659Y468770D01*
X404400Y468409D01*
X407141Y468770D01*
X409695Y469828D01*
X411889Y471511D01*
X413572Y473705D01*
X414630Y476259D01*
X414991Y479000D01*
X414630Y481741D01*
X413572Y484295D01*
X411889Y486489D01*
X409695Y488172D01*
X407141Y489230D01*
X404400Y489591D01*
D02*
G37*
G36*
X379000D02*
X376259Y489230D01*
X373705Y488172D01*
X371511Y486489D01*
X369828Y484295D01*
X368770Y481741D01*
X368409Y479000D01*
X368770Y476259D01*
X369828Y473705D01*
X371511Y471511D01*
X373705Y469828D01*
X376259Y468770D01*
X379000Y468409D01*
X381741Y468770D01*
X384295Y469828D01*
X386489Y471511D01*
X388172Y473705D01*
X389230Y476259D01*
X389591Y479000D01*
X389230Y481741D01*
X388172Y484295D01*
X386489Y486489D01*
X384295Y488172D01*
X381741Y489230D01*
X379000Y489591D01*
D02*
G37*
%LPD*%
G36*
X253096Y445171D02*
X251369Y444918D01*
X248256Y444287D01*
X246869Y443909D01*
X244436Y443027D01*
X243389Y442523D01*
X242455Y441977D01*
X241635Y441390D01*
X240928Y440761D01*
X239161Y442528D01*
X239790Y443235D01*
X240377Y444055D01*
X240923Y444989D01*
X241427Y446035D01*
X241889Y447196D01*
X242309Y448469D01*
X243023Y451356D01*
X243318Y452970D01*
X243571Y454696D01*
X253096Y445171D01*
D02*
G37*
G36*
X278496D02*
X276770Y444918D01*
X273656Y444287D01*
X272269Y443909D01*
X269835Y443027D01*
X268789Y442523D01*
X267855Y441977D01*
X267035Y441390D01*
X266328Y440761D01*
X264561Y442528D01*
X265190Y443235D01*
X265777Y444055D01*
X266323Y444989D01*
X266826Y446035D01*
X267288Y447196D01*
X267709Y448469D01*
X268423Y451356D01*
X268718Y452970D01*
X268971Y454696D01*
X278496Y445171D01*
D02*
G37*
G36*
X303896D02*
X302169Y444918D01*
X299056Y444287D01*
X297669Y443909D01*
X295236Y443027D01*
X294189Y442523D01*
X293255Y441977D01*
X292435Y441390D01*
X291728Y440761D01*
X289961Y442528D01*
X290590Y443235D01*
X291177Y444055D01*
X291723Y444989D01*
X292227Y446035D01*
X292689Y447196D01*
X293109Y448469D01*
X293823Y451356D01*
X294118Y452970D01*
X294371Y454696D01*
X303896Y445171D01*
D02*
G37*
G36*
X171016Y493272D02*
X175173Y489597D01*
X176144Y488848D01*
X178894Y487003D01*
X179755Y486524D01*
X167489Y480782D01*
X167885Y482753D01*
X168551Y487695D01*
X168599Y489018D01*
X168559Y490179D01*
X168432Y491179D01*
X168218Y492016D01*
X167917Y492691D01*
X167528Y493204D01*
X169908Y494360D01*
X171016Y493272D01*
D02*
G37*
G36*
X225508Y661000D02*
X226000Y660902D01*
X226492Y661000D01*
X325508Y661000D01*
X326000Y660902D01*
X326492Y661000D01*
X401000Y661000D01*
X513000Y549000D01*
X513000Y417417D01*
X505583Y410000D01*
X480583D01*
X472000Y418583D01*
X472000Y523000D01*
X377000Y618000D01*
X111000Y618000D01*
X65000Y572000D01*
X65000Y529000D01*
Y528000D01*
X60000Y523000D01*
X34000D01*
X29000Y528000D01*
Y572000D01*
Y593000D01*
X97000Y661000D01*
X225508Y661000D01*
D02*
G37*
G36*
X188639Y464672D02*
X188010Y463965D01*
X187423Y463145D01*
X186877Y462211D01*
X186374Y461165D01*
X185912Y460004D01*
X185491Y458731D01*
X184777Y455844D01*
X184482Y454230D01*
X184390Y453600D01*
X184482Y452970D01*
X185113Y449856D01*
X185491Y448469D01*
X186374Y446035D01*
X186877Y444989D01*
X187423Y444055D01*
X188010Y443235D01*
X188639Y442528D01*
X186872Y440761D01*
X186165Y441390D01*
X185345Y441977D01*
X184411Y442523D01*
X183365Y443027D01*
X182204Y443489D01*
X180931Y443909D01*
X178044Y444623D01*
X176430Y444918D01*
X174704Y445171D01*
X183133Y453600D01*
X174704Y462029D01*
X176430Y462282D01*
X179544Y462913D01*
X180931Y463291D01*
X183365Y464173D01*
X184411Y464677D01*
X185345Y465223D01*
X186165Y465810D01*
X186872Y466439D01*
X188639Y464672D01*
D02*
G37*
G36*
X214039D02*
X213410Y463965D01*
X212823Y463145D01*
X212277Y462211D01*
X211773Y461165D01*
X211311Y460004D01*
X210891Y458731D01*
X210177Y455844D01*
X209882Y454230D01*
X209629Y452504D01*
X200104Y462029D01*
X201831Y462282D01*
X204944Y462913D01*
X206331Y463291D01*
X208764Y464173D01*
X209811Y464677D01*
X210745Y465223D01*
X211565Y465810D01*
X212272Y466439D01*
X214039Y464672D01*
D02*
G37*
G36*
X388170Y576623D02*
X387867Y576837D01*
X387546Y577029D01*
X387204Y577198D01*
X386844Y577344D01*
X386464Y577468D01*
X386064Y577570D01*
X385645Y577649D01*
X385207Y577705D01*
X384750Y577739D01*
X384273Y577750D01*
Y580250D01*
X384750Y580261D01*
X385645Y580351D01*
X386064Y580430D01*
X386464Y580532D01*
X386844Y580656D01*
X387204Y580802D01*
X387546Y580971D01*
X387867Y581163D01*
X388170Y581377D01*
Y576623D01*
D02*
G37*
G36*
X140537Y525022D02*
X140630Y524658D01*
X140751Y524298D01*
X140903Y523939D01*
X141084Y523582D01*
X141294Y523228D01*
X141535Y522876D01*
X141805Y522527D01*
X142104Y522179D01*
X142434Y521834D01*
X140666Y520066D01*
X140321Y520396D01*
X139624Y520965D01*
X139272Y521205D01*
X138918Y521416D01*
X138561Y521597D01*
X138202Y521749D01*
X137842Y521870D01*
X137478Y521963D01*
X137113Y522025D01*
X140475Y525387D01*
X140537Y525022D01*
D02*
G37*
G36*
X127163Y562868D02*
X126971Y562546D01*
X126802Y562204D01*
X126656Y561844D01*
X126532Y561464D01*
X126430Y561064D01*
X126351Y560645D01*
X126295Y560207D01*
X126261Y559750D01*
X126250Y559273D01*
X123750D01*
X123739Y559750D01*
X123649Y560645D01*
X123570Y561064D01*
X123468Y561464D01*
X123344Y561844D01*
X123198Y562204D01*
X123029Y562546D01*
X122837Y562868D01*
X122623Y563170D01*
X127377D01*
X127163Y562868D01*
D02*
G37*
G36*
X381170Y587622D02*
X380867Y587836D01*
X380545Y588028D01*
X380204Y588197D01*
X379843Y588344D01*
X379463Y588468D01*
X379064Y588569D01*
X378645Y588648D01*
X378207Y588705D01*
X377749Y588739D01*
X377273Y588750D01*
X377274Y591250D01*
X377751Y591261D01*
X378647Y591351D01*
X379065Y591430D01*
X379465Y591532D01*
X379845Y591656D01*
X380205Y591802D01*
X380547Y591971D01*
X380868Y592162D01*
X381171Y592376D01*
X381170Y587622D01*
D02*
G37*
G36*
X112387Y593025D02*
X112022Y592963D01*
X111658Y592870D01*
X111298Y592749D01*
X110939Y592597D01*
X110583Y592416D01*
X110228Y592206D01*
X109876Y591965D01*
X109527Y591695D01*
X109179Y591396D01*
X108834Y591066D01*
X107066Y592834D01*
X107396Y593179D01*
X107965Y593876D01*
X108205Y594228D01*
X108416Y594582D01*
X108597Y594939D01*
X108749Y595298D01*
X108870Y595658D01*
X108963Y596022D01*
X109025Y596387D01*
X112387Y593025D01*
D02*
G37*
G36*
X118387Y580025D02*
X118022Y579963D01*
X117658Y579870D01*
X117298Y579749D01*
X116939Y579597D01*
X116582Y579416D01*
X116228Y579206D01*
X115876Y578965D01*
X115527Y578695D01*
X115179Y578396D01*
X114834Y578066D01*
X113066Y579834D01*
X113396Y580179D01*
X113965Y580876D01*
X114206Y581228D01*
X114416Y581582D01*
X114597Y581939D01*
X114749Y582298D01*
X114870Y582658D01*
X114963Y583022D01*
X115025Y583387D01*
X118387Y580025D01*
D02*
G37*
G36*
X126263Y489489D02*
X126300Y489058D01*
X126362Y488679D01*
X126450Y488350D01*
X126562Y488072D01*
X126700Y487844D01*
X126862Y487667D01*
X127050Y487540D01*
X127262Y487464D01*
X127500Y487439D01*
X122500D01*
X122738Y487464D01*
X122950Y487540D01*
X123138Y487667D01*
X123300Y487844D01*
X123438Y488072D01*
X123550Y488350D01*
X123638Y488679D01*
X123700Y489058D01*
X123737Y489489D01*
X123750Y489969D01*
X126250D01*
X126263Y489489D01*
D02*
G37*
D18*
X290000Y1180000D02*
D03*
X550000Y50000D02*
D03*
X50000D02*
D03*
D19*
X235900Y437500D02*
X252000Y453600D01*
X191900Y437500D02*
X235900D01*
X175800Y453600D02*
X191900Y437500D01*
X275200Y426000D02*
X302800Y453600D01*
X119000Y426000D02*
X275200D01*
X105000Y440000D02*
X119000Y426000D01*
X105000Y589000D02*
X112000Y596000D01*
X110000Y575000D02*
X118000Y583000D01*
X110000Y442000D02*
X121000Y431000D01*
X254800D01*
X277400Y453600D01*
X292000Y590000D02*
X382999D01*
X189000Y466800D02*
Y487000D01*
X382999Y590000D02*
X383000Y589999D01*
X175800Y453600D02*
X189000Y466800D01*
X214000Y466400D02*
Y486000D01*
X201200Y453600D02*
X214000Y466400D01*
X110000Y442000D02*
Y575000D01*
X105000Y440000D02*
Y589000D01*
X137500Y525000D02*
X175800Y486700D01*
Y479000D02*
Y486700D01*
X307000Y579000D02*
X390000D01*
X214000Y486000D02*
X307000Y579000D01*
X189000Y487000D02*
X292000Y590000D01*
X125000Y479000D02*
Y565000D01*
D24*
X277400Y453600D02*
D03*
Y479000D02*
D03*
X252000Y453600D02*
D03*
Y479000D02*
D03*
X226600D02*
D03*
X201200D02*
D03*
X175800D02*
D03*
X150400D02*
D03*
X125000Y453600D02*
D03*
X150400D02*
D03*
X175800D02*
D03*
X201200D02*
D03*
X226600D02*
D03*
X302800Y479000D02*
D03*
X328200D02*
D03*
X353600D02*
D03*
X302800Y453600D02*
D03*
X328200D02*
D03*
X353600D02*
D03*
X404400D02*
D03*
X379000D02*
D03*
X404400Y479000D02*
D03*
X379000D02*
D03*
D25*
X125000D02*
D03*
D26*
X165583Y559000D02*
D03*
Y534000D02*
D03*
X190583Y549000D02*
D03*
Y524000D02*
D03*
X47500Y540000D02*
D03*
Y555000D02*
D03*
X55000Y532500D02*
D03*
X40000D02*
D03*
Y547500D02*
D03*
X55000D02*
D03*
Y562500D02*
D03*
X40000D02*
D03*
X112000Y596000D02*
D03*
X118000Y583000D02*
D03*
X125000Y565000D02*
D03*
X383000Y589999D02*
D03*
X390000Y579000D02*
D03*
X137500Y525000D02*
D03*
X50000Y510000D02*
D03*
X70000D02*
D03*
X90000D02*
D03*
X60000Y500000D02*
D03*
X80000D02*
D03*
X90000Y490000D02*
D03*
X70000D02*
D03*
X50000D02*
D03*
X60000Y480000D02*
D03*
X80000D02*
D03*
X90000Y470000D02*
D03*
X70000D02*
D03*
X80000Y520000D02*
D03*
X90000Y530000D02*
D03*
X-5000Y510000D02*
D03*
Y490000D02*
D03*
Y470000D02*
D03*
Y530000D02*
D03*
X26000Y66000D02*
D03*
X76000Y166000D02*
D03*
X26000Y266000D02*
D03*
X76000Y366000D02*
D03*
Y566000D02*
D03*
X126000Y66000D02*
D03*
X176000Y166000D02*
D03*
X126000Y266000D02*
D03*
X176000Y366000D02*
D03*
Y566000D02*
D03*
X226000Y66000D02*
D03*
X276000Y166000D02*
D03*
X226000Y266000D02*
D03*
X276000Y366000D02*
D03*
X226000Y666000D02*
D03*
X276000Y766000D02*
D03*
Y966000D02*
D03*
X326000Y66000D02*
D03*
X376000Y166000D02*
D03*
X326000Y266000D02*
D03*
X376000Y366000D02*
D03*
Y566000D02*
D03*
X326000Y666000D02*
D03*
X376000Y766000D02*
D03*
X326000Y866000D02*
D03*
X376000Y966000D02*
D03*
X426000Y66000D02*
D03*
X476000Y166000D02*
D03*
X426000Y266000D02*
D03*
X476000Y366000D02*
D03*
X426000Y466000D02*
D03*
X476000Y766000D02*
D03*
Y966000D02*
D03*
X526000Y66000D02*
D03*
X576000Y166000D02*
D03*
X526000Y266000D02*
D03*
X576000Y366000D02*
D03*
X526000Y466000D02*
D03*
X576000Y566000D02*
D03*
X526000Y666000D02*
D03*
X576000Y766000D02*
D03*
X526000Y866000D02*
D03*
X576000Y966000D02*
D03*
D27*
X493583Y432250D02*
D03*
X537583D02*
D03*
D28*
X494583Y477750D02*
D03*
X536583D02*
D03*
D29*
X520000Y720000D02*
D03*
Y1070000D02*
D03*
X300000Y719999D02*
D03*
Y1070000D02*
D03*
M02*
