G04 Layer_Color=16711935*
%FSLAX44Y44*%
%MOMM*%
G71*
G01*
G75*
%ADD39C,3.0000*%
%ADD41C,1.9032*%
%ADD42R,1.9032X1.9032*%
%ADD43C,0.3000*%
%ADD44R,1.0032X2.2032*%
%ADD45R,1.2032X1.9032*%
%ADD46C,9.2032*%
D39*
X290000Y1180000D02*
D03*
X550000Y50000D02*
D03*
X50000D02*
D03*
D41*
X277400Y453600D02*
D03*
Y479000D02*
D03*
X252000Y453600D02*
D03*
Y479000D02*
D03*
X226600D02*
D03*
X201200D02*
D03*
X175800D02*
D03*
X150400D02*
D03*
X125000Y453600D02*
D03*
X150400D02*
D03*
X175800D02*
D03*
X201200D02*
D03*
X226600D02*
D03*
X302800Y479000D02*
D03*
X328200D02*
D03*
X353600D02*
D03*
X302800Y453600D02*
D03*
X328200D02*
D03*
X353600D02*
D03*
X404400D02*
D03*
X379000D02*
D03*
X404400Y479000D02*
D03*
X379000D02*
D03*
D42*
X125000D02*
D03*
D43*
X165583Y559000D02*
D03*
Y534000D02*
D03*
X190583Y549000D02*
D03*
Y524000D02*
D03*
X47500Y540000D02*
D03*
Y555000D02*
D03*
X55000Y532500D02*
D03*
X40000D02*
D03*
Y547500D02*
D03*
X55000D02*
D03*
Y562500D02*
D03*
X40000D02*
D03*
X112000Y596000D02*
D03*
X118000Y583000D02*
D03*
X125000Y565000D02*
D03*
X383000Y589999D02*
D03*
X390000Y579000D02*
D03*
X137500Y525000D02*
D03*
X50000Y510000D02*
D03*
X70000D02*
D03*
X90000D02*
D03*
X60000Y500000D02*
D03*
X80000D02*
D03*
X90000Y490000D02*
D03*
X70000D02*
D03*
X50000D02*
D03*
X60000Y480000D02*
D03*
X80000D02*
D03*
X90000Y470000D02*
D03*
X70000D02*
D03*
X80000Y520000D02*
D03*
X90000Y530000D02*
D03*
X-5000Y510000D02*
D03*
Y490000D02*
D03*
Y470000D02*
D03*
Y530000D02*
D03*
X26000Y66000D02*
D03*
X76000Y166000D02*
D03*
X26000Y266000D02*
D03*
X76000Y366000D02*
D03*
Y566000D02*
D03*
X126000Y66000D02*
D03*
X176000Y166000D02*
D03*
X126000Y266000D02*
D03*
X176000Y366000D02*
D03*
Y566000D02*
D03*
X226000Y66000D02*
D03*
X276000Y166000D02*
D03*
X226000Y266000D02*
D03*
X276000Y366000D02*
D03*
X226000Y666000D02*
D03*
X276000Y766000D02*
D03*
Y966000D02*
D03*
X326000Y66000D02*
D03*
X376000Y166000D02*
D03*
X326000Y266000D02*
D03*
X376000Y366000D02*
D03*
Y566000D02*
D03*
X326000Y666000D02*
D03*
X376000Y766000D02*
D03*
X326000Y866000D02*
D03*
X376000Y966000D02*
D03*
X426000Y66000D02*
D03*
X476000Y166000D02*
D03*
X426000Y266000D02*
D03*
X476000Y366000D02*
D03*
X426000Y466000D02*
D03*
X476000Y766000D02*
D03*
Y966000D02*
D03*
X526000Y66000D02*
D03*
X576000Y166000D02*
D03*
X526000Y266000D02*
D03*
X576000Y366000D02*
D03*
X526000Y466000D02*
D03*
X576000Y566000D02*
D03*
X526000Y666000D02*
D03*
X576000Y766000D02*
D03*
X526000Y866000D02*
D03*
X576000Y966000D02*
D03*
D44*
X493583Y432250D02*
D03*
X537583D02*
D03*
D45*
X494583Y477750D02*
D03*
X536583D02*
D03*
D46*
X520000Y720000D02*
D03*
Y1070000D02*
D03*
X300000Y719999D02*
D03*
Y1070000D02*
D03*
M02*
