G04 Layer_Color=8388736*
%FSLAX44Y44*%
%MOMM*%
G71*
G01*
G75*
%ADD31R,0.4100X1.8600*%
%ADD32R,2.7032X1.9032*%
%ADD33R,2.2532X2.7032*%
%ADD34R,1.5032X1.9032*%
%ADD35R,1.9032X1.5032*%
%ADD36R,1.8600X0.4100*%
%ADD37R,1.9032X2.7032*%
%ADD38R,2.7032X2.2532*%
%ADD39C,3.0000*%
%ADD40C,7.5532*%
%ADD41C,1.9032*%
%ADD42R,1.9032X1.9032*%
%ADD43C,0.3000*%
D31*
X490000Y1139750D02*
D03*
X485000D02*
D03*
X480000D02*
D03*
X475000D02*
D03*
X470000D02*
D03*
X465000D02*
D03*
X460000D02*
D03*
X455000D02*
D03*
X450000D02*
D03*
X445000D02*
D03*
X440000D02*
D03*
X435000D02*
D03*
X430000D02*
D03*
X425000D02*
D03*
X420000D02*
D03*
X415000D02*
D03*
X410000D02*
D03*
X405000D02*
D03*
X400000D02*
D03*
X395000D02*
D03*
X390000D02*
D03*
D32*
X520000D02*
D03*
X360000D02*
D03*
X520000Y1190250D02*
D03*
X360000D02*
D03*
D33*
X549000Y1170500D02*
D03*
X331000D02*
D03*
D34*
X490000Y1190250D02*
D03*
X460000D02*
D03*
X420000D02*
D03*
X390000D02*
D03*
D35*
X-30250Y460000D02*
D03*
Y660000D02*
D03*
Y620000D02*
D03*
Y580000D02*
D03*
Y500000D02*
D03*
Y540000D02*
D03*
D36*
X20000Y460000D02*
D03*
Y465000D02*
D03*
Y470000D02*
D03*
Y475000D02*
D03*
Y480000D02*
D03*
Y485000D02*
D03*
Y490000D02*
D03*
Y495000D02*
D03*
Y500000D02*
D03*
Y505000D02*
D03*
Y510000D02*
D03*
Y515000D02*
D03*
Y520000D02*
D03*
Y525000D02*
D03*
Y530000D02*
D03*
Y535000D02*
D03*
Y540000D02*
D03*
Y545000D02*
D03*
Y550000D02*
D03*
Y555000D02*
D03*
X20250Y560000D02*
D03*
Y565000D02*
D03*
Y570000D02*
D03*
Y575000D02*
D03*
Y580000D02*
D03*
Y585000D02*
D03*
Y590000D02*
D03*
Y595000D02*
D03*
Y600000D02*
D03*
Y605000D02*
D03*
Y610000D02*
D03*
Y615000D02*
D03*
Y620000D02*
D03*
Y625000D02*
D03*
Y630000D02*
D03*
Y635000D02*
D03*
Y640000D02*
D03*
Y645000D02*
D03*
Y650000D02*
D03*
Y655000D02*
D03*
Y660000D02*
D03*
D37*
X-30250Y430000D02*
D03*
Y690000D02*
D03*
X20250Y430000D02*
D03*
Y690000D02*
D03*
D38*
X-10500Y401000D02*
D03*
Y719000D02*
D03*
D39*
X290000Y1180000D02*
D03*
X50000Y50000D02*
D03*
X550000D02*
D03*
D40*
X520000Y720000D02*
D03*
Y1070000D02*
D03*
X300000Y719999D02*
D03*
Y1070000D02*
D03*
D41*
X277400Y453600D02*
D03*
Y479000D02*
D03*
X252000Y453600D02*
D03*
Y479000D02*
D03*
X226600D02*
D03*
X201200D02*
D03*
X175800D02*
D03*
X150400D02*
D03*
X125000Y453600D02*
D03*
X150400D02*
D03*
X175800D02*
D03*
X201200D02*
D03*
X226600D02*
D03*
X302800Y479000D02*
D03*
X328200D02*
D03*
X353600D02*
D03*
X302800Y453600D02*
D03*
X328200D02*
D03*
X353600D02*
D03*
X404400D02*
D03*
X379000D02*
D03*
X404400Y479000D02*
D03*
X379000D02*
D03*
D42*
X125000D02*
D03*
D43*
X165583Y559000D02*
D03*
Y534000D02*
D03*
X190583Y549000D02*
D03*
Y524000D02*
D03*
X47500Y540000D02*
D03*
Y555000D02*
D03*
X55000Y532500D02*
D03*
X40000D02*
D03*
Y547500D02*
D03*
X55000D02*
D03*
Y562500D02*
D03*
X40000D02*
D03*
X112000Y596000D02*
D03*
X118000Y583000D02*
D03*
X125000Y565000D02*
D03*
X383000Y589999D02*
D03*
X390000Y579000D02*
D03*
X137500Y525000D02*
D03*
X50000Y510000D02*
D03*
X70000D02*
D03*
X90000D02*
D03*
X60000Y500000D02*
D03*
X80000D02*
D03*
X90000Y490000D02*
D03*
X70000D02*
D03*
X50000D02*
D03*
X60000Y480000D02*
D03*
X80000D02*
D03*
X90000Y470000D02*
D03*
X70000D02*
D03*
X80000Y520000D02*
D03*
X90000Y530000D02*
D03*
X-5000Y510000D02*
D03*
Y490000D02*
D03*
Y470000D02*
D03*
Y530000D02*
D03*
X26000Y66000D02*
D03*
X76000Y166000D02*
D03*
X26000Y266000D02*
D03*
X76000Y366000D02*
D03*
Y566000D02*
D03*
X126000Y66000D02*
D03*
X176000Y166000D02*
D03*
X126000Y266000D02*
D03*
X176000Y366000D02*
D03*
Y566000D02*
D03*
X226000Y66000D02*
D03*
X276000Y166000D02*
D03*
X226000Y266000D02*
D03*
X276000Y366000D02*
D03*
X226000Y666000D02*
D03*
X276000Y766000D02*
D03*
Y966000D02*
D03*
X326000Y66000D02*
D03*
X376000Y166000D02*
D03*
X326000Y266000D02*
D03*
X376000Y366000D02*
D03*
Y566000D02*
D03*
X326000Y666000D02*
D03*
X376000Y766000D02*
D03*
X326000Y866000D02*
D03*
X376000Y966000D02*
D03*
X426000Y66000D02*
D03*
X476000Y166000D02*
D03*
X426000Y266000D02*
D03*
X476000Y366000D02*
D03*
X426000Y466000D02*
D03*
X476000Y766000D02*
D03*
Y966000D02*
D03*
X526000Y66000D02*
D03*
X576000Y166000D02*
D03*
X526000Y266000D02*
D03*
X576000Y366000D02*
D03*
X526000Y466000D02*
D03*
X576000Y566000D02*
D03*
X526000Y666000D02*
D03*
X576000Y766000D02*
D03*
X526000Y866000D02*
D03*
X576000Y966000D02*
D03*
M02*
