G04 Layer_Color=128*
%FSLAX44Y44*%
%MOMM*%
G71*
G01*
G75*
%ADD18C,1.0000*%
%ADD22C,1.3000*%
%ADD27R,0.8000X2.0000*%
%ADD28R,1.0000X1.7000*%
D18*
X290000Y1180000D02*
D03*
X550000Y50000D02*
D03*
X50000D02*
D03*
D22*
X510062Y757088D02*
G03*
X482912Y729938I9938J-37088D01*
G01*
X557088D02*
G03*
X529938Y757088I-37088J-9938D01*
G01*
Y682912D02*
G03*
X557088Y710062I-9938J37088D01*
G01*
X482912D02*
G03*
X510062Y682912I37088J9938D01*
G01*
Y1107088D02*
G03*
X482912Y1079938I9938J-37088D01*
G01*
X557088D02*
G03*
X529938Y1107088I-37088J-9938D01*
G01*
Y1032912D02*
G03*
X557088Y1060062I-9938J37088D01*
G01*
X482912D02*
G03*
X510062Y1032912I37088J9938D01*
G01*
X290062Y757087D02*
G03*
X262912Y729937I9938J-37088D01*
G01*
X337088D02*
G03*
X309938Y757087I-37088J-9938D01*
G01*
Y682911D02*
G03*
X337088Y710061I-9938J37088D01*
G01*
X262912D02*
G03*
X290062Y682911I37088J9938D01*
G01*
Y1107088D02*
G03*
X262912Y1079938I9938J-37088D01*
G01*
X337088D02*
G03*
X309938Y1107088I-37088J-9938D01*
G01*
Y1032912D02*
G03*
X337088Y1060062I-9938J37088D01*
G01*
X262912D02*
G03*
X290062Y1032912I37088J9938D01*
G01*
D27*
X493583Y432250D02*
D03*
X537583D02*
D03*
D28*
X494583Y477750D02*
D03*
X536583D02*
D03*
M02*
